<svg width="17" height="23" viewBox="0 0 17 23" fill="none" xmlns="http://www.w3.org/2000/svg">
<path d="M15.2743 21.524H1.56949C1.492 21.5252 1.41511 21.5103 1.34366 21.4803C1.27221 21.4503 1.20776 21.4058 1.15437 21.3496C1.10098 21.2934 1.0598 21.2268 1.03344 21.1539C1.00708 21.0811 0.996112 21.0035 1.00122 20.9262L1.68757 6.49077C1.69514 6.34523 1.75833 6.20817 1.86409 6.1079C1.96986 6.00763 2.1101 5.95183 2.25583 5.95203H14.4034C14.548 5.95172 14.6872 6.0065 14.7928 6.10522C14.8983 6.20393 14.9623 6.33917 14.9717 6.48339L15.8425 20.9262C15.8466 21.0033 15.8348 21.0803 15.8081 21.1527C15.7813 21.2251 15.7401 21.2913 15.6869 21.3472C15.6337 21.4032 15.5697 21.4477 15.4988 21.4781C15.4278 21.5085 15.3515 21.5241 15.2743 21.524Z" stroke="black" stroke-width="1.20765" stroke-miterlimit="10"/>
<path d="M4.9717 7.28782V4.42435C4.9717 3.51616 5.33248 2.64516 5.97467 2.00297C6.61686 1.36078 7.48786 1 8.39605 1C9.30425 1 10.1752 1.36078 10.8174 2.00297C11.4596 2.64516 11.8204 3.51616 11.8204 4.42435V7.30258" stroke="black" stroke-width="1.20765" stroke-miterlimit="10" stroke-linecap="round"/>
</svg>
