<svg width="560" height="179" viewBox="0 0 560 179" fill="none" xmlns="http://www.w3.org/2000/svg">
<g clip-path="url(#clip0_56_20007)">
<path d="M404.635 24.7957C345.038 26.0916 333.719 19.2879 277.968 12.333C340.243 33.7377 383.228 34.8825 457.254 32.485C513.2 30.6706 542.405 58.6631 535.708 102.574C528.148 152.122 402.54 134.303 336.117 124.713C297.927 119.205 263.301 137.672 247.316 154.477C264.597 145.837 286.759 141.064 312.853 141.841C361.541 143.331 407.897 152.425 448.29 154.131C536.011 157.846 557.18 126.938 558.454 97.2174C560.528 45.79 540.245 21.8366 404.635 24.7957Z" fill="#EEEEEE"/>
<path d="M1.39062 104.669V85.0789" stroke="#CCCCCC" stroke-width="1.08004" stroke-miterlimit="10"/>
<path d="M6.48828 95.3176V85.0789" stroke="#CCCCCC" stroke-width="1.08004" stroke-miterlimit="10"/>
<path d="M11.5664 95.3176V85.0789" stroke="#CCCCCC" stroke-width="1.08004" stroke-miterlimit="10"/>
<path d="M16.6641 95.3176V85.0789" stroke="#CCCCCC" stroke-width="1.08004" stroke-miterlimit="10"/>
<path d="M21.7617 95.3176V85.0789" stroke="#CCCCCC" stroke-width="1.08004" stroke-miterlimit="10"/>
<path d="M31.957 95.3176V85.0789" stroke="#CCCCCC" stroke-width="1.08004" stroke-miterlimit="10"/>
<path d="M37.0312 95.3176V85.0789" stroke="#CCCCCC" stroke-width="1.08004" stroke-miterlimit="10"/>
<path d="M42.1328 95.3176V85.0789" stroke="#CCCCCC" stroke-width="1.08004" stroke-miterlimit="10"/>
<path d="M47.2305 95.3176V85.0789" stroke="#CCCCCC" stroke-width="1.08004" stroke-miterlimit="10"/>
<path d="M57.4258 95.3176V85.0789" stroke="#CCCCCC" stroke-width="1.08004" stroke-miterlimit="10"/>
<path d="M62.5 95.3176V85.0789" stroke="#CCCCCC" stroke-width="1.08004" stroke-miterlimit="10"/>
<path d="M67.5977 95.3176V85.0789" stroke="#CCCCCC" stroke-width="1.08004" stroke-miterlimit="10"/>
<path d="M72.6953 95.3176V85.0789" stroke="#CCCCCC" stroke-width="1.08004" stroke-miterlimit="10"/>
<path d="M82.8906 95.3176V85.0789" stroke="#CCCCCC" stroke-width="1.08004" stroke-miterlimit="10"/>
<path d="M87.9688 95.3176V85.0789" stroke="#CCCCCC" stroke-width="1.08004" stroke-miterlimit="10"/>
<path d="M93.0664 95.3176V85.0789" stroke="#CCCCCC" stroke-width="1.08004" stroke-miterlimit="10"/>
<path d="M98.1641 95.3176V85.0789" stroke="#CCCCCC" stroke-width="1.08004" stroke-miterlimit="10"/>
<path d="M108.359 95.3176V85.0789" stroke="#CCCCCC" stroke-width="1.08004" stroke-miterlimit="10"/>
<path d="M113.434 95.3176V85.0789" stroke="#CCCCCC" stroke-width="1.08004" stroke-miterlimit="10"/>
<path d="M118.535 95.3176V85.0789" stroke="#CCCCCC" stroke-width="1.08004" stroke-miterlimit="10"/>
<path d="M123.633 95.3176V85.0789" stroke="#CCCCCC" stroke-width="1.08004" stroke-miterlimit="10"/>
<path d="M133.828 95.3176V85.0789" stroke="#CCCCCC" stroke-width="1.08004" stroke-miterlimit="10"/>
<path d="M138.902 95.3176V85.0789" stroke="#CCCCCC" stroke-width="1.08004" stroke-miterlimit="10"/>
<path d="M144 95.3176V85.0789" stroke="#CCCCCC" stroke-width="1.08004" stroke-miterlimit="10"/>
<path d="M149.098 95.3176V85.0789" stroke="#CCCCCC" stroke-width="1.08004" stroke-miterlimit="10"/>
<path d="M159.293 95.3176V85.0789" stroke="#CCCCCC" stroke-width="1.08004" stroke-miterlimit="10"/>
<path d="M164.371 95.3176V85.0789" stroke="#CCCCCC" stroke-width="1.08004" stroke-miterlimit="10"/>
<path d="M169.469 95.3176V85.0789" stroke="#CCCCCC" stroke-width="1.08004" stroke-miterlimit="10"/>
<path d="M174.566 95.3176V85.0789" stroke="#CCCCCC" stroke-width="1.08004" stroke-miterlimit="10"/>
<path d="M184.762 95.3176V85.0789" stroke="#CCCCCC" stroke-width="1.08004" stroke-miterlimit="10"/>
<path d="M189.836 95.3176V85.0789" stroke="#CCCCCC" stroke-width="1.08004" stroke-miterlimit="10"/>
<path d="M194.938 95.3176V85.0789" stroke="#CCCCCC" stroke-width="1.08004" stroke-miterlimit="10"/>
<path d="M200.031 95.3176V85.0789" stroke="#CCCCCC" stroke-width="1.08004" stroke-miterlimit="10"/>
<path d="M210.23 95.3176V85.0789" stroke="#CCCCCC" stroke-width="1.08004" stroke-miterlimit="10"/>
<path d="M215.305 95.3176V85.0789" stroke="#CCCCCC" stroke-width="1.08004" stroke-miterlimit="10"/>
<path d="M220.402 95.3176V85.0789" stroke="#CCCCCC" stroke-width="1.08004" stroke-miterlimit="10"/>
<path d="M225.5 95.3176V85.0789" stroke="#CCCCCC" stroke-width="1.08004" stroke-miterlimit="10"/>
<path d="M235.695 95.3176V85.0789" stroke="#CCCCCC" stroke-width="1.08004" stroke-miterlimit="10"/>
<path d="M240.773 95.3176V85.0789" stroke="#CCCCCC" stroke-width="1.08004" stroke-miterlimit="10"/>
<path d="M245.871 95.3176V85.0789" stroke="#CCCCCC" stroke-width="1.08004" stroke-miterlimit="10"/>
<path d="M250.969 95.3176V85.0789" stroke="#CCCCCC" stroke-width="1.08004" stroke-miterlimit="10"/>
<path d="M26.8594 104.669V85.0789" stroke="#CCCCCC" stroke-width="1.08004" stroke-miterlimit="10"/>
<path d="M52.3281 104.669V85.0789" stroke="#CCCCCC" stroke-width="1.08004" stroke-miterlimit="10"/>
<path d="M77.793 104.669V85.0789" stroke="#CCCCCC" stroke-width="1.08004" stroke-miterlimit="10"/>
<path d="M103.262 104.669V85.0789" stroke="#CCCCCC" stroke-width="1.08004" stroke-miterlimit="10"/>
<path d="M128.727 104.669V85.0789" stroke="#CCCCCC" stroke-width="1.08004" stroke-miterlimit="10"/>
<path d="M154.195 104.669V85.0789" stroke="#CCCCCC" stroke-width="1.08004" stroke-miterlimit="10"/>
<path d="M179.664 104.669V85.0789" stroke="#CCCCCC" stroke-width="1.08004" stroke-miterlimit="10"/>
<path d="M205.129 104.669V85.0789" stroke="#CCCCCC" stroke-width="1.08004" stroke-miterlimit="10"/>
<path d="M230.598 104.669V85.0789" stroke="#CCCCCC" stroke-width="1.08004" stroke-miterlimit="10"/>
<path d="M256.066 104.669V85.0789" stroke="#CCCCCC" stroke-width="1.08004" stroke-miterlimit="10"/>
<path d="M261.164 85.5107V95.7495" stroke="#CCCCCC" stroke-width="1.08004" stroke-miterlimit="10"/>
<path d="M266.238 85.5107V95.7495" stroke="#CCCCCC" stroke-width="1.08004" stroke-miterlimit="10"/>
<path d="M271.336 85.5107V95.7495" stroke="#CCCCCC" stroke-width="1.08004" stroke-miterlimit="10"/>
<path d="M276.434 85.5107V95.7495" stroke="#CCCCCC" stroke-width="1.08004" stroke-miterlimit="10"/>
<path d="M281.945 104.669V85.0789" stroke="#CCCCCC" stroke-width="1.08004" stroke-miterlimit="10"/>
<path d="M287.039 95.3176V85.0789" stroke="#CCCCCC" stroke-width="1.08004" stroke-miterlimit="10"/>
<path d="M292.141 95.3176V85.0789" stroke="#CCCCCC" stroke-width="1.08004" stroke-miterlimit="10"/>
<path d="M297.215 95.3176V85.0789" stroke="#CCCCCC" stroke-width="1.08004" stroke-miterlimit="10"/>
<path d="M302.312 95.3176V85.0789" stroke="#CCCCCC" stroke-width="1.08004" stroke-miterlimit="10"/>
<path d="M312.508 95.3176V85.0789" stroke="#CCCCCC" stroke-width="1.08004" stroke-miterlimit="10"/>
<path d="M317.605 95.3176V85.0789" stroke="#CCCCCC" stroke-width="1.08004" stroke-miterlimit="10"/>
<path d="M322.684 95.3176V85.0789" stroke="#CCCCCC" stroke-width="1.08004" stroke-miterlimit="10"/>
<path d="M327.781 95.3176V85.0789" stroke="#CCCCCC" stroke-width="1.08004" stroke-miterlimit="10"/>
<path d="M337.977 95.3176V85.0789" stroke="#CCCCCC" stroke-width="1.08004" stroke-miterlimit="10"/>
<path d="M343.074 95.3176V85.0789" stroke="#CCCCCC" stroke-width="1.08004" stroke-miterlimit="10"/>
<path d="M348.148 95.3176V85.0789" stroke="#CCCCCC" stroke-width="1.08004" stroke-miterlimit="10"/>
<path d="M353.246 95.3176V85.0789" stroke="#CCCCCC" stroke-width="1.08004" stroke-miterlimit="10"/>
<path d="M363.441 95.3176V85.0789" stroke="#CCCCCC" stroke-width="1.08004" stroke-miterlimit="10"/>
<path d="M368.539 95.3176V85.0789" stroke="#CCCCCC" stroke-width="1.08004" stroke-miterlimit="10"/>
<path d="M373.617 95.3176V85.0789" stroke="#CCCCCC" stroke-width="1.08004" stroke-miterlimit="10"/>
<path d="M378.715 95.3176V85.0789" stroke="#CCCCCC" stroke-width="1.08004" stroke-miterlimit="10"/>
<path d="M388.91 95.3176V85.0789" stroke="#CCCCCC" stroke-width="1.08004" stroke-miterlimit="10"/>
<path d="M394.008 95.3176V85.0789" stroke="#CCCCCC" stroke-width="1.08004" stroke-miterlimit="10"/>
<path d="M399.086 95.3176V85.0789" stroke="#CCCCCC" stroke-width="1.08004" stroke-miterlimit="10"/>
<path d="M404.184 95.3176V85.0789" stroke="#CCCCCC" stroke-width="1.08004" stroke-miterlimit="10"/>
<path d="M414.379 95.3176V85.0789" stroke="#CCCCCC" stroke-width="1.08004" stroke-miterlimit="10"/>
<path d="M419.477 95.3176V85.0789" stroke="#CCCCCC" stroke-width="1.08004" stroke-miterlimit="10"/>
<path d="M424.551 95.3176V85.0789" stroke="#CCCCCC" stroke-width="1.08004" stroke-miterlimit="10"/>
<path d="M429.648 95.3176V85.0789" stroke="#CCCCCC" stroke-width="1.08004" stroke-miterlimit="10"/>
<path d="M439.844 95.3176V85.0789" stroke="#CCCCCC" stroke-width="1.08004" stroke-miterlimit="10"/>
<path d="M444.941 95.3176V85.0789" stroke="#CCCCCC" stroke-width="1.08004" stroke-miterlimit="10"/>
<path d="M450.02 95.3176V85.0789" stroke="#CCCCCC" stroke-width="1.08004" stroke-miterlimit="10"/>
<path d="M455.117 95.3176V85.0789" stroke="#CCCCCC" stroke-width="1.08004" stroke-miterlimit="10"/>
<path d="M465.312 95.3176V85.0789" stroke="#CCCCCC" stroke-width="1.08004" stroke-miterlimit="10"/>
<path d="M470.41 95.3176V85.0789" stroke="#CCCCCC" stroke-width="1.08004" stroke-miterlimit="10"/>
<path d="M475.484 95.3176V85.0789" stroke="#CCCCCC" stroke-width="1.08004" stroke-miterlimit="10"/>
<path d="M480.582 95.3176V85.0789" stroke="#CCCCCC" stroke-width="1.08004" stroke-miterlimit="10"/>
<path d="M490.781 95.3176V85.0789" stroke="#CCCCCC" stroke-width="1.08004" stroke-miterlimit="10"/>
<path d="M495.879 95.3176V85.0789" stroke="#CCCCCC" stroke-width="1.08004" stroke-miterlimit="10"/>
<path d="M500.953 95.3176V85.0789" stroke="#CCCCCC" stroke-width="1.08004" stroke-miterlimit="10"/>
<path d="M506.051 95.3176V85.0789" stroke="#CCCCCC" stroke-width="1.08004" stroke-miterlimit="10"/>
<path d="M516.246 95.3176V85.0789" stroke="#CCCCCC" stroke-width="1.08004" stroke-miterlimit="10"/>
<path d="M521.344 95.3176V85.0789" stroke="#CCCCCC" stroke-width="1.08004" stroke-miterlimit="10"/>
<path d="M526.422 95.3176V85.0789" stroke="#CCCCCC" stroke-width="1.08004" stroke-miterlimit="10"/>
<path d="M531.52 95.3176V85.0789" stroke="#CCCCCC" stroke-width="1.08004" stroke-miterlimit="10"/>
<path d="M307.41 104.669V85.0789" stroke="#CCCCCC" stroke-width="1.08004" stroke-miterlimit="10"/>
<path d="M332.879 104.669V85.0789" stroke="#CCCCCC" stroke-width="1.08004" stroke-miterlimit="10"/>
<path d="M358.344 104.669V85.0789" stroke="#CCCCCC" stroke-width="1.08004" stroke-miterlimit="10"/>
<path d="M383.812 104.669V85.0789" stroke="#CCCCCC" stroke-width="1.08004" stroke-miterlimit="10"/>
<path d="M409.281 104.669V85.0789" stroke="#CCCCCC" stroke-width="1.08004" stroke-miterlimit="10"/>
<path d="M434.746 104.669V85.0789" stroke="#CCCCCC" stroke-width="1.08004" stroke-miterlimit="10"/>
<path d="M460.215 104.669V85.0789" stroke="#CCCCCC" stroke-width="1.08004" stroke-miterlimit="10"/>
<path d="M485.68 104.669V85.0789" stroke="#CCCCCC" stroke-width="1.08004" stroke-miterlimit="10"/>
<path d="M511.148 104.669V85.0789" stroke="#CCCCCC" stroke-width="1.08004" stroke-miterlimit="10"/>
<path d="M536.617 104.669V85.0789" stroke="#CCCCCC" stroke-width="1.08004" stroke-miterlimit="10"/>
<path d="M541.715 85.5107V95.7495" stroke="#CCCCCC" stroke-width="1.08004" stroke-miterlimit="10"/>
<path d="M546.812 85.5107V95.7495" stroke="#CCCCCC" stroke-width="1.08004" stroke-miterlimit="10"/>
<path d="M551.887 85.5107V95.7495" stroke="#CCCCCC" stroke-width="1.08004" stroke-miterlimit="10"/>
<path d="M556.984 85.5107V95.7495" stroke="#CCCCCC" stroke-width="1.08004" stroke-miterlimit="10"/>
<path d="M558.476 97.196C557.288 126.916 536.119 157.825 448.312 154.11C407.832 152.403 361.564 143.31 312.875 141.82C245.654 139.789 233.838 177.89 163.528 177.89C76.4981 177.912 1.08984 155.838 1.08984 89.9603C1.08984 55.7257 36.9903 31.0164 74.9861 17.6682C118.36 2.4408 163.852 -0.453481 207.377 1.70643C263.928 4.51431 314.625 27.1286 434.337 25.1414C536.206 23.4567 560.528 45.7902 558.476 97.196Z" stroke="#EEEEEE" stroke-width="2.16008" stroke-miterlimit="10"/>
<path d="M22.9707 105.426H18.6505V104.799C19.2985 104.302 19.7953 103.892 20.1626 103.568C20.5298 103.244 20.8754 102.942 21.221 102.596C21.4957 102.325 21.7352 102.02 21.9338 101.689C22.059 101.441 22.1255 101.167 22.1282 100.889C22.1367 100.725 22.1059 100.561 22.0383 100.41C21.9707 100.26 21.8682 100.128 21.7394 100.025C21.4764 99.8339 21.1573 99.7352 20.8322 99.7446C20.5022 99.737 20.1749 99.805 19.8753 99.9436C19.5758 100.082 19.312 100.287 19.1041 100.544L18.6289 100.025C18.8877 99.7295 19.2136 99.4999 19.5793 99.3558C19.9737 99.181 20.4009 99.0927 20.8322 99.0966C21.3618 99.082 21.8804 99.2497 22.301 99.5718C22.5101 99.7289 22.6768 99.9355 22.7862 100.173C22.8955 100.411 22.9441 100.672 22.9275 100.933C22.9047 101.59 22.6347 102.215 22.1714 102.682C21.4779 103.473 20.7113 104.196 19.8818 104.842H22.9707V105.426Z" fill="#868686"/>
<path d="M45.6741 105.555C45.2102 105.56 44.7517 105.457 44.3349 105.253C43.976 105.087 43.6697 104.825 43.4492 104.497L43.9028 104.022C44.1058 104.278 44.3643 104.485 44.6589 104.626C44.9682 104.777 45.3088 104.851 45.6525 104.842C46.0361 104.865 46.4162 104.758 46.7325 104.54C46.8588 104.435 46.9594 104.303 47.0267 104.153C47.0941 104.003 47.1265 103.84 47.1213 103.676C47.1361 103.512 47.1057 103.346 47.0333 103.198C46.961 103.049 46.8495 102.923 46.7109 102.834C46.366 102.628 45.9672 102.53 45.5661 102.553H44.9181V101.84H45.5661C45.9363 101.855 46.3032 101.765 46.6245 101.581C46.7547 101.498 46.8611 101.383 46.9331 101.246C47.005 101.11 47.0402 100.957 47.0349 100.803C47.0378 100.646 47.0017 100.491 46.9301 100.352C46.8585 100.213 46.7535 100.093 46.6245 100.004C46.3321 99.8059 45.9837 99.7074 45.6309 99.7231C45.3153 99.7199 45.0028 99.786 44.7154 99.9166C44.428 100.047 44.1728 100.239 43.9676 100.479L43.5356 99.9823C43.7936 99.6629 44.1243 99.4099 44.5001 99.2445C44.876 99.0792 45.2859 99.0063 45.6957 99.0319C46.2408 99.0003 46.7809 99.1524 47.2294 99.4639C47.4241 99.6031 47.5814 99.7884 47.6869 100.003C47.7925 100.218 47.8431 100.456 47.8342 100.695C47.8395 100.88 47.8056 101.064 47.7349 101.236C47.6642 101.407 47.5582 101.561 47.4238 101.689C47.1586 101.934 46.8289 102.099 46.4733 102.164C46.8462 102.199 47.1963 102.359 47.467 102.618C47.6187 102.757 47.738 102.928 47.8164 103.118C47.8948 103.308 47.9304 103.514 47.9206 103.719C47.929 103.968 47.8787 104.215 47.7736 104.44C47.6684 104.665 47.5116 104.862 47.3158 105.015C46.8568 105.397 46.27 105.59 45.6741 105.555Z" fill="#868686"/>
<path d="M74.4247 105.426H73.6254V103.827H70.6445V103.179L73.4526 99.1399H74.5327V103.158H75.4183V103.827H74.5327L74.4247 105.426ZM73.6254 103.158V99.8527L71.4654 103.158H73.6254Z" fill="#868686"/>
<path d="M97.9257 105.555C97.5104 105.573 97.0969 105.49 96.7207 105.314C96.3445 105.137 96.0167 104.871 95.7656 104.54L96.2408 104.022C96.4465 104.282 96.7094 104.491 97.009 104.634C97.3087 104.776 97.6372 104.848 97.9689 104.842C98.359 104.857 98.7391 104.717 99.0273 104.454C99.1574 104.332 99.2609 104.185 99.3316 104.021C99.4022 103.858 99.4383 103.681 99.4377 103.503C99.4404 103.318 99.4054 103.135 99.3348 102.964C99.2643 102.793 99.1596 102.639 99.0273 102.51C98.7412 102.259 98.3703 102.128 97.9905 102.142C97.4448 102.144 96.92 102.353 96.5216 102.726L95.96 102.531V99.1399H99.805V99.8311H96.6945V101.991C96.8856 101.798 97.1149 101.646 97.3677 101.545C97.6205 101.445 97.8914 101.398 98.1633 101.408C98.6884 101.409 99.1952 101.601 99.589 101.948C99.9719 102.35 100.186 102.883 100.186 103.438C100.186 103.993 99.9719 104.527 99.589 104.929C99.1389 105.349 98.5411 105.574 97.9257 105.555Z" fill="#868686"/>
<path d="M123.135 105.555C122.749 105.562 122.368 105.465 122.033 105.274C121.719 105.105 121.452 104.86 121.255 104.562C121.067 104.239 120.929 103.889 120.845 103.525C120.754 103.121 120.711 102.708 120.715 102.293C120.708 101.75 120.796 101.209 120.974 100.695C121.143 100.225 121.443 99.8122 121.838 99.507C122.244 99.1908 122.75 99.0299 123.264 99.0534C123.592 99.0345 123.921 99.0909 124.224 99.2182C124.527 99.3454 124.797 99.5403 125.014 99.7878L124.625 100.393C124.462 100.189 124.255 100.025 124.019 99.9124C123.783 99.8002 123.525 99.7428 123.264 99.7446C123.082 99.7375 122.901 99.7662 122.731 99.8292C122.56 99.8922 122.404 99.9883 122.27 100.112C121.997 100.355 121.795 100.669 121.687 101.019C121.555 101.401 121.489 101.803 121.493 102.207C121.48 102.293 121.48 102.38 121.493 102.466C121.674 102.184 121.918 101.947 122.206 101.775C122.492 101.62 122.809 101.531 123.135 101.516C123.679 101.494 124.211 101.68 124.625 102.034C124.814 102.232 124.962 102.466 125.058 102.722C125.155 102.978 125.198 103.251 125.187 103.525C125.194 103.798 125.143 104.07 125.039 104.323C124.935 104.576 124.779 104.804 124.582 104.994C124.186 105.354 123.67 105.554 123.135 105.555ZM123.135 104.842C123.33 104.854 123.526 104.824 123.709 104.753C123.891 104.682 124.056 104.573 124.193 104.432C124.315 104.314 124.412 104.173 124.479 104.017C124.546 103.862 124.581 103.694 124.582 103.525C124.592 103.336 124.56 103.147 124.489 102.972C124.418 102.796 124.31 102.638 124.171 102.509C123.873 102.268 123.496 102.144 123.113 102.164C122.799 102.166 122.493 102.256 122.227 102.423C121.949 102.591 121.713 102.82 121.536 103.093C121.568 103.538 121.725 103.965 121.99 104.324C122.125 104.496 122.299 104.633 122.499 104.723C122.698 104.813 122.916 104.854 123.135 104.842Z" fill="#868686"/>
<path d="M147.22 105.426H146.356L148.884 99.8311H145.492V99.1399H149.812V99.6799L147.22 105.426Z" fill="#868686"/>
<path d="M173.895 105.08C173.425 105.403 172.866 105.569 172.296 105.555C171.72 105.57 171.153 105.403 170.676 105.08C170.47 104.944 170.303 104.757 170.189 104.538C170.076 104.318 170.02 104.074 170.028 103.827C170.028 103.637 170.066 103.45 170.14 103.275C170.214 103.101 170.323 102.943 170.46 102.812C170.76 102.514 171.132 102.298 171.54 102.185C171.165 102.091 170.821 101.897 170.546 101.624C170.411 101.507 170.303 101.36 170.232 101.196C170.161 101.031 170.128 100.852 170.136 100.673C170.127 100.432 170.183 100.193 170.296 99.9809C170.41 99.7683 170.579 99.5899 170.784 99.4637C171.242 99.194 171.764 99.0518 172.296 99.0518C172.828 99.0518 173.35 99.194 173.808 99.4637C174.014 99.5899 174.182 99.7683 174.296 99.9809C174.41 100.193 174.465 100.432 174.456 100.673C174.464 100.85 174.433 101.027 174.366 101.191C174.299 101.355 174.197 101.503 174.067 101.624C173.782 101.894 173.432 102.087 173.052 102.185C173.456 102.293 173.822 102.51 174.111 102.812C174.252 102.94 174.363 103.097 174.438 103.272C174.513 103.447 174.548 103.637 174.543 103.827C174.548 104.073 174.492 104.317 174.379 104.536C174.266 104.755 174.099 104.942 173.895 105.08ZM172.296 104.842C172.666 104.858 173.03 104.752 173.333 104.54C173.467 104.455 173.578 104.337 173.653 104.197C173.729 104.057 173.767 103.9 173.765 103.741C173.761 103.618 173.732 103.497 173.68 103.386C173.628 103.274 173.554 103.175 173.463 103.093C173.288 102.92 173.083 102.781 172.858 102.682C172.678 102.607 172.489 102.556 172.296 102.531C172.103 102.554 171.913 102.605 171.735 102.682C171.507 102.775 171.301 102.915 171.13 103.093C171.035 103.172 170.959 103.271 170.906 103.383C170.854 103.495 170.827 103.617 170.827 103.741C170.82 103.9 170.857 104.059 170.933 104.2C171.009 104.341 171.122 104.458 171.259 104.54C171.561 104.755 171.926 104.861 172.296 104.842ZM172.296 101.861H172.685L173.117 101.667C173.273 101.596 173.408 101.484 173.506 101.343C173.607 101.205 173.66 101.038 173.657 100.868C173.661 100.719 173.627 100.572 173.559 100.44C173.491 100.308 173.391 100.195 173.268 100.112C172.984 99.9139 172.642 99.8152 172.296 99.8309C171.943 99.8152 171.595 99.9137 171.303 100.112C171.186 100.2 171.092 100.314 171.029 100.446C170.965 100.577 170.933 100.722 170.935 100.868C170.932 101.038 170.985 101.205 171.087 101.343C171.179 101.489 171.315 101.603 171.475 101.667L171.907 101.861H172.296Z" fill="#868686"/>
<path d="M199.492 105.534C199.162 105.55 198.833 105.49 198.529 105.359C198.226 105.228 197.957 105.029 197.742 104.778L198.131 104.195C198.294 104.398 198.501 104.563 198.737 104.675C198.973 104.787 199.231 104.844 199.492 104.843C199.868 104.852 200.233 104.712 200.507 104.454C200.788 104.217 200.991 103.901 201.09 103.547C201.204 103.168 201.262 102.775 201.263 102.38V102.121C201.074 102.398 200.822 102.627 200.529 102.791C200.215 102.997 199.846 103.103 199.47 103.093C198.933 103.109 198.41 102.924 198.001 102.575C197.801 102.384 197.644 102.152 197.543 101.894C197.442 101.637 197.4 101.36 197.418 101.084C197.414 100.814 197.466 100.546 197.57 100.297C197.674 100.048 197.828 99.8236 198.023 99.6368C198.234 99.4326 198.485 99.2736 198.76 99.1696C199.035 99.0656 199.328 99.0188 199.622 99.032C200.011 99.0257 200.397 99.1147 200.745 99.2912C201.054 99.4698 201.313 99.7221 201.501 100.026C201.689 100.349 201.827 100.698 201.911 101.062C202.002 101.467 202.045 101.88 202.041 102.294C202.048 102.838 201.96 103.378 201.782 103.892C201.614 104.357 201.323 104.768 200.939 105.08C200.52 105.387 200.011 105.546 199.492 105.534ZM199.665 102.423C199.978 102.421 200.285 102.331 200.55 102.164C200.829 102.004 201.06 101.773 201.22 101.494C201.206 101.049 201.055 100.619 200.788 100.263C200.655 100.087 200.482 99.9461 200.282 99.852C200.083 99.7579 199.863 99.7137 199.643 99.7232C199.446 99.7169 199.25 99.7522 199.068 99.8266C198.886 99.901 198.721 100.013 198.585 100.155C198.463 100.273 198.366 100.414 198.299 100.57C198.232 100.725 198.197 100.893 198.196 101.062C198.189 101.251 198.222 101.439 198.293 101.614C198.363 101.789 198.47 101.947 198.606 102.078C198.91 102.31 199.283 102.431 199.665 102.423Z" fill="#868686"/>
<path d="M219.604 105.426H218.826V100.177L217.811 101.235L217.336 100.76L218.913 99.1399H219.604V105.426Z" fill="#868686"/>
<path d="M223.232 105.555C222.844 105.555 222.464 105.451 222.13 105.253C221.822 105.064 221.563 104.805 221.374 104.497C221.184 104.175 221.046 103.825 220.964 103.46C220.871 103.078 220.82 102.687 220.812 102.294C220.818 101.9 220.868 101.509 220.964 101.127C221.046 100.762 221.184 100.412 221.374 100.09C221.666 99.5976 222.142 99.2412 222.697 99.0995C223.252 98.9577 223.841 99.0421 224.333 99.3342C224.642 99.523 224.901 99.7821 225.089 100.09C225.27 100.417 225.408 100.765 225.5 101.127C225.588 101.51 225.632 101.901 225.629 102.294C225.629 102.686 225.586 103.077 225.5 103.46C225.408 103.822 225.27 104.17 225.089 104.497C224.894 104.8 224.636 105.058 224.333 105.253C224 105.451 223.619 105.555 223.232 105.555ZM222.281 104.454C222.404 104.581 222.552 104.681 222.716 104.748C222.879 104.815 223.055 104.847 223.232 104.842C223.408 104.846 223.584 104.813 223.747 104.746C223.911 104.679 224.059 104.58 224.182 104.454C224.425 104.188 224.602 103.87 224.701 103.525C224.873 102.713 224.873 101.874 224.701 101.062C224.602 100.717 224.425 100.399 224.182 100.133C224.059 100.007 223.911 99.9077 223.747 99.8409C223.584 99.774 223.408 99.7413 223.232 99.7446C223.055 99.74 222.879 99.7721 222.716 99.8391C222.552 99.906 222.404 100.006 222.281 100.133C222.039 100.399 221.861 100.717 221.763 101.062C221.59 101.874 221.59 102.713 221.763 103.525C221.861 103.87 222.039 104.188 222.281 104.454Z" fill="#868686"/>
<path d="M248.073 105.426H247.274V100.177L246.28 101.235L245.805 100.76L247.382 99.1399H248.073V105.426Z" fill="#868686"/>
<path d="M251.269 105.426H250.578V100.177L249.585 101.235L249.109 100.76L250.686 99.1399H251.377L251.269 105.426Z" fill="#868686"/>
<path d="M271.51 105.426H270.733V100.177L269.717 101.235L269.242 100.76L270.819 99.1399H271.51V105.426Z" fill="#868686"/>
<path d="M277.084 105.426H272.764V104.799C273.412 104.302 273.93 103.892 274.276 103.568C274.621 103.244 274.989 102.942 275.334 102.596C275.609 102.325 275.849 102.02 276.047 101.689C276.172 101.441 276.239 101.167 276.242 100.89C276.249 100.727 276.22 100.565 276.157 100.416C276.093 100.266 275.997 100.133 275.874 100.026C275.603 99.8339 275.277 99.7353 274.945 99.7447C274.617 99.7282 274.29 99.7925 273.993 99.9318C273.695 100.071 273.436 100.281 273.239 100.544L272.742 100.026C272.996 99.7139 273.322 99.4692 273.693 99.3127C274.087 99.1379 274.514 99.0496 274.945 99.0535C275.481 99.0425 276.005 99.2096 276.436 99.5287C276.641 99.6896 276.804 99.8969 276.913 100.134C277.022 100.37 277.073 100.629 277.062 100.89C277.029 101.545 276.761 102.166 276.306 102.639C275.599 103.424 274.826 104.146 273.995 104.799H277.084V105.426Z" fill="#868686"/>
<path d="M297.299 105.426H296.522V100.177L295.506 101.235L295.031 100.76L296.608 99.1399H297.299V105.426Z" fill="#868686"/>
<path d="M300.563 105.555C300.099 105.562 299.64 105.459 299.224 105.253C298.864 105.079 298.552 104.819 298.316 104.497L298.792 104.022C298.988 104.275 299.239 104.482 299.526 104.626C299.842 104.78 300.19 104.854 300.541 104.842C300.925 104.861 301.304 104.755 301.621 104.54C301.748 104.435 301.848 104.303 301.916 104.153C301.983 104.003 302.015 103.84 302.01 103.676C302.025 103.512 301.994 103.346 301.922 103.198C301.85 103.049 301.738 102.923 301.6 102.834C301.248 102.625 300.841 102.527 300.433 102.553H299.785V101.84H300.433C300.804 101.857 301.171 101.767 301.492 101.581C301.625 101.501 301.734 101.387 301.806 101.25C301.879 101.112 301.912 100.958 301.902 100.803C301.909 100.648 301.877 100.494 301.81 100.354C301.742 100.214 301.64 100.094 301.513 100.004C301.213 99.8055 300.858 99.7072 300.498 99.723C300.182 99.7199 299.87 99.7859 299.583 99.9166C299.295 100.047 299.04 100.239 298.835 100.479L298.403 99.9823C298.664 99.6669 298.996 99.4167 299.371 99.2517C299.745 99.0868 300.154 99.0115 300.563 99.0318C301.107 99.0067 301.645 99.1582 302.097 99.4638C302.286 99.6067 302.438 99.7933 302.54 100.008C302.641 100.222 302.689 100.458 302.68 100.695C302.689 100.881 302.658 101.066 302.587 101.238C302.516 101.41 302.407 101.564 302.269 101.689C302.012 101.934 301.69 102.099 301.341 102.164C301.708 102.195 302.053 102.356 302.313 102.618C302.471 102.753 302.596 102.922 302.678 103.113C302.76 103.304 302.798 103.511 302.788 103.719C302.796 103.968 302.746 104.214 302.641 104.44C302.536 104.665 302.379 104.862 302.183 105.015C301.726 105.384 301.15 105.576 300.563 105.555Z" fill="#868686"/>
<path d="M322.811 105.426H322.033V100.177L321.018 101.235L320.543 100.76L322.12 99.1399H322.811V105.426Z" fill="#868686"/>
<path d="M327.628 105.426H326.85V103.827H323.848V103.179L326.548 99.1399H327.628V103.158H328.513V103.827H327.628V105.426ZM326.85 103.158V99.8527L324.69 103.158H326.85Z" fill="#868686"/>
<path d="M348.323 105.426H347.545V100.177L346.53 101.235L346.055 100.76L347.632 99.1399H348.323V105.426Z" fill="#868686"/>
<path d="M351.906 105.555C351.492 105.568 351.08 105.483 350.705 105.306C350.329 105.13 350.001 104.867 349.746 104.54L350.221 104.022C350.429 104.285 350.696 104.496 350.999 104.639C351.303 104.781 351.636 104.851 351.971 104.842C352.161 104.851 352.351 104.821 352.529 104.755C352.708 104.688 352.87 104.585 353.008 104.454C353.142 104.336 353.249 104.189 353.32 104.025C353.391 103.86 353.424 103.682 353.418 103.503C353.425 103.32 353.394 103.137 353.327 102.966C353.26 102.795 353.159 102.64 353.029 102.51C352.733 102.262 352.357 102.131 351.971 102.142C351.703 102.139 351.437 102.189 351.189 102.289C350.941 102.39 350.715 102.538 350.524 102.726L349.94 102.531V99.1399H353.807V99.8311H350.74V101.991C351.116 101.664 351.603 101.494 352.101 101.516C352.618 101.522 353.116 101.714 353.505 102.056C353.699 102.246 353.852 102.475 353.952 102.728C354.053 102.982 354.099 103.253 354.088 103.525C354.106 103.808 354.059 104.091 353.95 104.354C353.842 104.616 353.674 104.849 353.461 105.037C353.031 105.407 352.473 105.594 351.906 105.555Z" fill="#868686"/>
<path d="M374.133 105.426H373.356V100.177L372.34 101.235L371.887 100.76L373.464 99.1399H374.133V105.426Z" fill="#868686"/>
<path d="M377.787 105.555C377.401 105.562 377.021 105.465 376.685 105.274C376.371 105.105 376.104 104.86 375.908 104.562C375.719 104.239 375.581 103.889 375.497 103.525C375.407 103.121 375.363 102.708 375.368 102.293C375.361 101.75 375.448 101.209 375.627 100.695C375.795 100.225 376.095 99.8122 376.491 99.507C376.897 99.1908 377.402 99.0299 377.916 99.0534C378.245 99.0345 378.573 99.0909 378.876 99.2182C379.179 99.3454 379.45 99.5403 379.666 99.7878L379.277 100.393C379.114 100.189 378.907 100.025 378.671 99.9124C378.436 99.8002 378.177 99.7428 377.916 99.7446C377.735 99.7375 377.554 99.7662 377.383 99.8292C377.213 99.8922 377.056 99.9883 376.923 100.112C376.642 100.349 376.439 100.665 376.34 101.019C376.207 101.401 376.141 101.803 376.145 102.207V102.466C376.341 102.189 376.591 101.954 376.88 101.775C377.23 101.585 377.626 101.495 378.024 101.516C378.562 101.5 379.085 101.685 379.493 102.034C379.691 102.227 379.845 102.46 379.945 102.717C380.046 102.974 380.091 103.249 380.077 103.525C380.083 103.798 380.033 104.07 379.929 104.323C379.825 104.576 379.669 104.804 379.472 104.994C379.247 105.201 378.98 105.359 378.69 105.456C378.399 105.552 378.091 105.586 377.787 105.555ZM377.787 104.842C377.982 104.854 378.178 104.824 378.361 104.753C378.544 104.682 378.709 104.573 378.845 104.432C378.967 104.314 379.064 104.173 379.131 104.017C379.198 103.862 379.233 103.694 379.234 103.525C379.244 103.336 379.212 103.147 379.141 102.972C379.07 102.796 378.962 102.638 378.824 102.509C378.526 102.268 378.149 102.144 377.765 102.164C377.452 102.166 377.145 102.256 376.88 102.423C376.602 102.591 376.366 102.82 376.188 103.093C376.22 103.538 376.377 103.965 376.642 104.324C376.775 104.493 376.946 104.628 377.141 104.718C377.337 104.808 377.55 104.851 377.765 104.842H377.787Z" fill="#868686"/>
<path d="M399.971 105.426H399.194V100.177L398.178 101.235L397.703 100.76L399.28 99.1399H399.971V105.426Z" fill="#868686"/>
<path d="M402.713 105.426H401.784L404.333 99.8311H400.941V99.1399H405.262V99.6799L402.713 105.426Z" fill="#868686"/>
<path d="M425.067 105.426H424.289V100.177L423.274 101.235L422.82 100.76L424.397 99.1399H425.067V105.426Z" fill="#868686"/>
<path d="M430.168 105.08C429.689 105.391 429.13 105.556 428.559 105.556C427.988 105.556 427.429 105.391 426.95 105.08C426.744 104.944 426.576 104.757 426.463 104.538C426.349 104.319 426.294 104.074 426.302 103.827C426.301 103.638 426.339 103.45 426.414 103.275C426.488 103.101 426.597 102.943 426.734 102.812C427.031 102.51 427.404 102.293 427.814 102.186C427.433 102.087 427.084 101.894 426.798 101.624C426.669 101.503 426.567 101.355 426.5 101.191C426.433 101.027 426.402 100.851 426.409 100.673C426.401 100.433 426.456 100.194 426.57 99.981C426.684 99.7684 426.852 99.59 427.058 99.4638C427.51 99.1806 428.036 99.0378 428.57 99.0534C429.103 99.0403 429.628 99.1829 430.082 99.4638C430.287 99.59 430.455 99.7684 430.569 99.981C430.683 100.194 430.738 100.433 430.73 100.673C430.737 100.853 430.705 101.031 430.633 101.196C430.562 101.36 430.455 101.507 430.319 101.624C430.044 101.897 429.701 102.091 429.326 102.186C429.727 102.299 430.092 102.515 430.384 102.812C430.525 102.94 430.637 103.097 430.711 103.272C430.786 103.447 430.822 103.637 430.816 103.827C430.822 104.074 430.766 104.318 430.652 104.536C430.539 104.755 430.372 104.942 430.168 105.08ZM428.57 104.842C428.939 104.855 429.302 104.749 429.606 104.54C429.738 104.454 429.846 104.335 429.918 104.195C429.989 104.055 430.024 103.898 430.017 103.741C430.017 103.619 429.992 103.499 429.944 103.388C429.895 103.276 429.825 103.176 429.736 103.093C429.557 102.925 429.353 102.786 429.131 102.682C428.951 102.61 428.762 102.559 428.57 102.531C428.376 102.554 428.187 102.605 428.008 102.682C427.777 102.782 427.565 102.921 427.382 103.093C427.29 103.175 427.216 103.274 427.164 103.386C427.112 103.497 427.083 103.618 427.079 103.741C427.077 103.9 427.115 104.057 427.191 104.197C427.266 104.337 427.377 104.455 427.511 104.54C427.822 104.752 428.193 104.858 428.57 104.842ZM428.57 101.862H428.937L429.39 101.667C429.543 101.59 429.676 101.479 429.779 101.343C429.88 101.206 429.934 101.039 429.93 100.868C429.934 100.719 429.901 100.572 429.833 100.44C429.765 100.308 429.665 100.195 429.542 100.112C429.257 99.914 428.916 99.8153 428.57 99.831C428.216 99.8121 427.867 99.9109 427.576 100.112C427.453 100.195 427.353 100.308 427.285 100.44C427.217 100.572 427.183 100.719 427.187 100.868C427.194 101.037 427.247 101.201 427.338 101.343C427.448 101.425 427.573 101.484 427.706 101.516L428.138 101.71L428.57 101.862Z" fill="#868686"/>
<path d="M448.377 105.426H447.6V100.177L446.585 101.235L446.109 100.76L447.686 99.1399H448.377V105.426Z" fill="#868686"/>
<path d="M451.638 105.534C451.312 105.547 450.987 105.485 450.687 105.354C450.388 105.223 450.122 105.026 449.91 104.778L450.299 104.195C450.459 104.397 450.662 104.56 450.894 104.672C451.126 104.784 451.381 104.843 451.638 104.843C452.021 104.853 452.393 104.714 452.675 104.454C452.956 104.217 453.159 103.901 453.258 103.547C453.372 103.168 453.43 102.775 453.431 102.38C453.445 102.294 453.445 102.207 453.431 102.121C453.255 102.401 453.009 102.632 452.718 102.791C452.404 102.995 452.035 103.1 451.66 103.093C451.115 103.114 450.583 102.929 450.169 102.575C449.969 102.384 449.812 102.152 449.711 101.894C449.61 101.637 449.568 101.36 449.586 101.084C449.599 100.543 449.815 100.026 450.191 99.6368C450.402 99.4326 450.653 99.2736 450.928 99.1696C451.203 99.0656 451.496 99.0188 451.789 99.032C452.18 99.0231 452.566 99.1122 452.913 99.2912C453.229 99.4598 453.491 99.7144 453.669 100.026C453.864 100.347 454.01 100.697 454.101 101.062C454.191 101.467 454.235 101.88 454.23 102.294C454.237 102.838 454.15 103.378 453.971 103.892C453.795 104.358 453.496 104.769 453.107 105.08C452.685 105.398 452.166 105.558 451.638 105.534ZM451.811 102.423C452.132 102.422 452.445 102.332 452.718 102.164C452.992 101.998 453.222 101.768 453.388 101.494C453.356 101.049 453.199 100.622 452.934 100.263C452.806 100.088 452.637 99.9462 452.441 99.852C452.245 99.7578 452.028 99.7135 451.811 99.7232C451.614 99.7141 451.417 99.7481 451.234 99.8227C451.052 99.8973 450.887 100.011 450.753 100.155C450.631 100.273 450.534 100.414 450.467 100.57C450.4 100.725 450.365 100.893 450.364 101.062C450.351 101.252 450.381 101.441 450.452 101.617C450.523 101.793 450.633 101.951 450.774 102.078C451.069 102.31 451.436 102.432 451.811 102.423Z" fill="#868686"/>
<path d="M471.705 105.426H467.385V104.799C468.033 104.302 468.53 103.892 468.897 103.568C469.264 103.244 469.61 102.942 469.955 102.596C470.23 102.325 470.47 102.02 470.668 101.689C470.793 101.441 470.86 101.167 470.863 100.889C470.871 100.725 470.84 100.561 470.773 100.41C470.705 100.26 470.603 100.128 470.474 100.025C470.211 99.8339 469.892 99.7352 469.567 99.7446C469.237 99.7369 468.909 99.805 468.61 99.9435C468.31 100.082 468.046 100.287 467.839 100.544L467.363 100.025C467.617 99.7138 467.943 99.4691 468.314 99.3126C468.708 99.1378 469.135 99.0494 469.567 99.0534C470.096 99.0387 470.615 99.2065 471.035 99.5286C471.244 99.6857 471.411 99.8923 471.521 100.13C471.63 100.367 471.678 100.628 471.662 100.889C471.639 101.547 471.369 102.172 470.906 102.639C470.212 103.43 469.446 104.153 468.616 104.799H471.705V105.426Z" fill="#868686"/>
<path d="M475.224 105.555C474.836 105.563 474.453 105.458 474.123 105.253C473.811 105.068 473.551 104.808 473.367 104.497C473.177 104.175 473.038 103.825 472.956 103.46C472.853 103.08 472.802 102.687 472.805 102.294C472.799 101.899 472.85 101.507 472.956 101.127C473.038 100.762 473.177 100.412 473.367 100.09C473.544 99.7732 473.806 99.5115 474.123 99.3342C474.455 99.1353 474.838 99.0377 475.224 99.0534C475.604 99.0431 475.978 99.1405 476.304 99.3342C476.621 99.5115 476.883 99.7732 477.06 100.09C477.249 100.416 477.394 100.764 477.493 101.127C477.581 101.51 477.624 101.901 477.622 102.294C477.622 102.686 477.578 103.077 477.493 103.46C477.394 103.823 477.249 104.171 477.06 104.497C476.876 104.808 476.616 105.068 476.304 105.253C475.98 105.453 475.606 105.558 475.224 105.555ZM474.274 104.454C474.397 104.581 474.545 104.681 474.708 104.748C474.872 104.815 475.048 104.847 475.224 104.842C475.398 104.847 475.57 104.814 475.73 104.747C475.89 104.68 476.035 104.58 476.153 104.454C476.411 104.2 476.591 103.877 476.672 103.525C476.873 102.716 476.873 101.871 476.672 101.062C476.591 100.71 476.411 100.387 476.153 100.133C476.035 100.007 475.89 99.9067 475.73 99.8397C475.57 99.7727 475.398 99.7403 475.224 99.7446C475.048 99.74 474.872 99.7721 474.708 99.8391C474.545 99.906 474.397 100.006 474.274 100.133C474.016 100.387 473.836 100.71 473.756 101.062C473.554 101.871 473.554 102.716 473.756 103.525C473.86 103.888 474.071 104.211 474.36 104.454H474.274Z" fill="#868686"/>
<path d="M497.648 105.426H493.328V104.799C493.998 104.303 494.495 103.892 494.862 103.568C495.228 103.267 495.574 102.942 495.899 102.596C496.186 102.337 496.427 102.03 496.611 101.689C496.752 101.446 496.827 101.17 496.827 100.89C496.836 100.725 496.805 100.561 496.737 100.411C496.67 100.26 496.567 100.128 496.439 100.026C496.169 99.831 495.842 99.7321 495.51 99.7448C495.183 99.7404 494.86 99.8101 494.565 99.9485C494.269 100.087 494.009 100.291 493.803 100.544L493.328 100.026C493.573 99.7142 493.893 99.4692 494.257 99.3127C494.652 99.1399 495.079 99.0516 495.51 99.0535C496.046 99.0357 496.573 99.2035 497 99.5288C497.209 99.6859 497.376 99.8925 497.485 100.13C497.595 100.368 497.643 100.629 497.627 100.89C497.604 101.547 497.334 102.172 496.871 102.639C496.172 103.424 495.405 104.147 494.581 104.799H497.67L497.648 105.426Z" fill="#868686"/>
<path d="M500.823 105.426H500.045V100.177L499.03 101.235L498.555 100.76L500.132 99.1399H500.823V105.426Z" fill="#868686"/>
<path d="M518.558 105.426H514.238V104.799C514.908 104.303 515.405 103.892 515.772 103.568C516.138 103.267 516.484 102.942 516.809 102.596C517.096 102.337 517.338 102.03 517.522 101.689C517.663 101.446 517.737 101.17 517.738 100.89C517.746 100.725 517.715 100.561 517.648 100.411C517.58 100.26 517.478 100.128 517.349 100.026C517.079 99.831 516.752 99.7321 516.42 99.7448C516.092 99.7302 515.766 99.7952 515.468 99.9344C515.171 100.074 514.912 100.283 514.714 100.544L514.238 100.026C514.484 99.7142 514.803 99.4692 515.167 99.3127C515.561 99.138 515.989 99.0496 516.42 99.0535C516.957 99.0357 517.483 99.2035 517.91 99.5288C518.115 99.6896 518.279 99.8969 518.388 100.134C518.497 100.37 518.548 100.629 518.537 100.89C518.504 101.545 518.235 102.166 517.781 102.639C517.079 103.429 516.305 104.152 515.47 104.799H518.558V105.426Z" fill="#868686"/>
<path d="M524.109 105.426H519.789V104.799C520.437 104.303 520.955 103.892 521.323 103.568C521.69 103.244 522.036 102.942 522.36 102.596C522.647 102.337 522.888 102.03 523.072 101.689C523.213 101.446 523.288 101.17 523.288 100.89C523.297 100.725 523.266 100.561 523.198 100.411C523.131 100.26 523.028 100.128 522.9 100.026C522.63 99.831 522.303 99.7321 521.971 99.7448C521.643 99.7302 521.316 99.7952 521.019 99.9344C520.722 100.074 520.463 100.283 520.264 100.544L519.789 100.026C520.034 99.7142 520.354 99.4692 520.718 99.3127C521.112 99.138 521.539 99.0496 521.971 99.0535C522.507 99.0357 523.034 99.2035 523.461 99.5288C523.666 99.6896 523.83 99.8969 523.939 100.134C524.048 100.37 524.099 100.629 524.088 100.89C524.055 101.545 523.786 102.166 523.332 102.639C522.63 103.429 521.856 104.152 521.02 104.799H524.109V105.426Z" fill="#868686"/>
<path d="M558.906 18.0569V165.298" stroke="black" stroke-width="2.16008" stroke-miterlimit="10"/>
<path d="M536.898 18.0569V165.298" stroke="black" stroke-width="2.16008" stroke-miterlimit="10"/>
<path d="M1.65234 18.0569V165.298" stroke="black" stroke-width="2.16008" stroke-miterlimit="10"/>
<path d="M5.88281 80.2407H532.79" stroke="black" stroke-width="2.16008" stroke-miterlimit="10"/>
<path d="M12.4086 71.0825L5.08594 80.0461L12.7326 89.4201" stroke="black" stroke-width="2.16008" stroke-miterlimit="10" stroke-linecap="round"/>
<path d="M525.926 89.4201L533.248 80.4349L525.602 71.0825" stroke="black" stroke-width="2.16008" stroke-miterlimit="10" stroke-linecap="round"/>
</g>
<defs>
<clipPath id="clip0_56_20007">
<rect width="560" height="178.97" fill="white"/>
</clipPath>
</defs>
</svg>
