<svg width="158" height="18" viewBox="0 0 158 18" fill="none" xmlns="http://www.w3.org/2000/svg">
<path d="M0 0V17.1808H2.09285V17.1687H6.83826V15.0636H2.09285V2.10502H23.7879V0H0Z" fill="black"/>
<path d="M22.3034 5.01314L8.17663 5.00098C7.2338 5.00611 6.33123 5.38376 5.66568 6.05159C5.00013 6.71942 4.62557 7.62328 4.62366 8.56612C4.62429 9.50935 4.99844 10.4139 5.66427 11.0821C6.33009 11.7502 7.23341 12.1274 8.17663 12.1313H15.5016C15.7884 12.1424 16.0658 12.2366 16.3 12.4025C16.5343 12.5684 16.7153 12.7987 16.821 13.0656C16.9267 13.3324 16.9526 13.6243 16.8955 13.9056C16.8384 14.1868 16.7007 14.4455 16.4994 14.65C16.3663 14.786 16.2073 14.8938 16.0317 14.9669C15.856 15.0401 15.6675 15.0771 15.4773 15.0758H9.29606V17.1809H15.4773C16.4244 17.1841 17.3341 16.8109 18.0061 16.1435C18.6781 15.476 19.0574 14.569 19.0607 13.6218C19.0639 12.6747 18.6907 11.765 18.0233 11.093C17.3558 10.421 16.4487 10.0416 15.5016 10.0384H8.16446C7.87619 10.0367 7.59487 9.94974 7.35596 9.78843C7.11704 9.62711 6.93122 9.39868 6.82192 9.13193C6.71262 8.86518 6.68472 8.57205 6.74175 8.28947C6.79878 8.00689 6.93818 7.74751 7.14238 7.54403C7.27541 7.40804 7.43447 7.30024 7.61008 7.22707C7.78568 7.15391 7.97423 7.11686 8.16446 7.11816H21.6098L21.5976 17.2052H23.7014L23.7136 5.02531L22.3034 5.01314Z" fill="black"/>
<path d="M41.6588 4.62812L39.8632 6.21504C39.231 5.34255 38.5987 4.89998 37.9665 4.89998C37.6844 4.88917 37.408 4.9813 37.1888 5.1592C37.0904 5.2202 37.0076 5.30347 36.9472 5.4023C36.8868 5.50113 36.8505 5.61277 36.8411 5.72822C36.8433 5.94689 36.919 6.15846 37.0561 6.32885C37.6115 6.92013 38.2118 7.46759 38.8516 7.96635C39.7747 8.73768 40.3374 9.23083 40.5334 9.42682C40.9605 9.83735 41.3134 10.3186 41.5766 10.8494C41.7889 11.3137 41.8989 11.8182 41.899 12.3288C41.9125 12.8118 41.823 13.2922 41.6366 13.738C41.4502 14.1839 41.1711 14.5849 40.8179 14.9147C40.4354 15.2634 39.9876 15.5328 39.5003 15.7075C39.0131 15.8823 38.4961 15.9587 37.9791 15.9326C37.1424 15.952 36.319 15.7208 35.6146 15.2687C34.8651 14.7325 34.2698 14.0086 33.8885 13.1697L35.9244 11.9431C36.5566 13.0685 37.2394 13.6312 38.036 13.6312C38.4174 13.6439 38.7897 13.5131 39.0792 13.2645C39.2085 13.1667 39.3139 13.0407 39.3873 12.8961C39.4607 12.7515 39.5002 12.5921 39.5028 12.43C39.4956 12.1143 39.3845 11.8099 39.1867 11.5638C38.7634 11.0738 38.2886 10.6308 37.7705 10.2424C36.7665 9.49315 35.8652 8.61525 35.0898 7.63126C34.7012 7.09667 34.4811 6.45824 34.4576 5.79776C34.4536 5.36903 34.5419 4.94446 34.7164 4.55285C34.891 4.16123 35.1477 3.81172 35.4692 3.52802C35.8041 3.21187 36.1983 2.96527 36.6292 2.80249C37.06 2.63971 37.5189 2.56397 37.9791 2.57966C38.6136 2.5873 39.2366 2.75009 39.7937 3.05384C40.5114 3.46635 41.1443 4.01128 41.6588 4.65973" fill="black"/>
<path d="M49.9727 2.90186H52.293L57.7366 11.2664V2.90186H60.1517V15.6162H57.8251L52.3941 7.27064V15.6162H49.9727V2.90186Z" fill="black"/>
<path d="M68.9338 2.90186H75.8758V5.26643H71.3364V7.56779H75.8758V9.89443H71.3364V13.239H75.8758V15.6162H68.9338V2.90186Z" fill="black"/>
<path d="M87.9767 2.90186H90.4298L95.3233 15.6162H92.7944L91.846 12.9924H86.6237L85.5868 15.6162H83.0579L87.9767 2.90186ZM89.2412 6.2717L87.5152 10.6405H90.9166L89.2412 6.2717Z" fill="black"/>
<path d="M102.133 2.90186H104.579V7.28328L108.031 2.90186H110.933L106.495 8.57305L111.37 15.6162H108.499L104.579 9.96398V15.6162H102.133V2.90186Z" fill="black"/>
<path d="M118.811 2.90186H125.753V5.26643H121.213V7.56779H125.753V9.89443H121.213V13.239H125.753V15.6162H118.811V2.90186Z" fill="black"/>
<path d="M134.206 2.90189H136.773C137.786 2.8445 138.802 2.97088 139.77 3.27491C140.372 3.53335 140.877 3.97606 141.212 4.5394C141.595 5.15368 141.796 5.86384 141.793 6.58786C141.81 7.33686 141.589 8.07191 141.161 8.68689C140.7 9.28449 140.067 9.72593 139.346 9.95137L142.362 15.6036H139.713L136.855 10.2169H136.634V15.6036H134.206V2.90189ZM136.628 7.8713H137.386C137.933 7.92068 138.483 7.81553 138.973 7.56783C139.125 7.45052 139.244 7.29689 139.32 7.12116C139.397 6.94544 139.427 6.7533 139.41 6.56257C139.414 6.30392 139.339 6.05015 139.195 5.83549C139.053 5.63274 138.852 5.47831 138.619 5.39292C138.186 5.28182 137.738 5.23705 137.292 5.26015H136.659L136.628 7.8713Z" fill="black" stroke="black" stroke-width="0.112884" stroke-miterlimit="10"/>
<path d="M156.752 4.62783L154.957 6.21476C154.324 5.34227 153.692 4.8997 153.06 4.8997C152.778 4.88889 152.501 4.98102 152.282 5.15892C152.191 5.22535 152.116 5.31172 152.064 5.41144C152.011 5.51115 151.982 5.62157 151.979 5.73425C151.984 5.95241 152.059 6.1631 152.194 6.33488C152.743 6.92542 153.337 7.47287 153.97 7.97238C154.893 8.74372 155.456 9.23687 155.652 9.43286C156.079 9.84338 156.432 10.3246 156.695 10.8554C156.901 11.3212 157.005 11.8257 156.999 12.3348C157.012 12.8179 156.923 13.2982 156.736 13.7441C156.55 14.1899 156.271 14.591 155.918 14.9207C155.15 15.6202 154.135 15.9863 153.098 15.9386C152.261 15.958 151.438 15.7268 150.733 15.2748C149.974 14.7401 149.369 14.0137 148.982 13.1694L151.018 11.9429C151.65 13.0682 152.333 13.6309 153.129 13.6309C153.511 13.6436 153.883 13.5128 154.173 13.2642C154.303 13.1667 154.409 13.0409 154.484 12.8964C154.558 12.7518 154.599 12.5922 154.603 12.4297C154.593 12.1135 154.479 11.8093 154.28 11.5635C153.858 11.0748 153.385 10.6319 152.87 10.2421C151.863 9.49236 150.959 8.61218 150.183 7.62465C149.795 7.09006 149.574 6.45164 149.551 5.79116C149.547 5.36242 149.635 4.93786 149.81 4.54624C149.984 4.15462 150.241 3.80511 150.563 3.52141C151.233 2.88914 152.126 2.54814 153.047 2.57305C153.679 2.57096 154.302 2.72286 154.862 3.01562C155.579 3.42813 156.212 3.97306 156.727 4.62151" fill="black"/>
<path d="M156.752 4.62783L154.957 6.21476C154.324 5.34227 153.692 4.8997 153.06 4.8997C152.778 4.88889 152.501 4.98102 152.282 5.15892C152.191 5.22535 152.116 5.31172 152.064 5.41144C152.011 5.51115 151.982 5.62157 151.979 5.73425C151.984 5.95241 152.059 6.1631 152.194 6.33488C152.743 6.92542 153.337 7.47287 153.97 7.97239C154.893 8.74372 155.456 9.23687 155.652 9.43286C156.079 9.84338 156.432 10.3246 156.695 10.8554C156.901 11.3212 157.005 11.8257 156.999 12.3348C157.012 12.8179 156.923 13.2982 156.736 13.7441C156.55 14.1899 156.271 14.591 155.918 14.9207C155.15 15.6202 154.136 15.9863 153.098 15.9386C152.261 15.958 151.438 15.7268 150.733 15.2748C149.974 14.7401 149.369 14.0137 148.982 13.1694L151.018 11.9429C151.65 13.0682 152.333 13.6309 153.129 13.6309C153.511 13.6436 153.883 13.5128 154.173 13.2642C154.303 13.1667 154.409 13.0409 154.484 12.8964C154.558 12.7518 154.599 12.5922 154.603 12.4297C154.593 12.1135 154.479 11.8093 154.28 11.5635C153.858 11.0748 153.385 10.6319 152.87 10.2421C151.863 9.49236 150.959 8.61218 150.183 7.62465C149.795 7.09006 149.574 6.45164 149.551 5.79116C149.547 5.36242 149.635 4.93786 149.81 4.54624C149.984 4.15462 150.241 3.80511 150.563 3.52141C151.233 2.88914 152.126 2.54814 153.047 2.57305C153.679 2.57096 154.302 2.72286 154.862 3.01562C155.579 3.42813 156.212 3.97306 156.727 4.62151" stroke="black" stroke-width="0.112884" stroke-miterlimit="10"/>
<path d="M41.6588 4.62787L39.8632 6.2148C39.231 5.34231 38.5987 4.89974 37.9665 4.89974C37.6844 4.88893 37.408 4.98106 37.1888 5.15896C37.0904 5.21996 37.0076 5.30322 36.9472 5.40206C36.8868 5.50089 36.8505 5.61252 36.8411 5.72797C36.8433 5.94664 36.919 6.15821 37.0561 6.3286C37.6115 6.91988 38.2118 7.46735 38.8516 7.9661C39.7747 8.73744 40.3374 9.23058 40.5334 9.42658C40.9605 9.8371 41.3134 10.3184 41.5766 10.8491C41.7889 11.3134 41.8989 11.818 41.899 12.3286C41.9125 12.8116 41.823 13.292 41.6366 13.7378C41.4502 14.1836 41.1711 14.5847 40.8179 14.9144C40.4354 15.2631 39.9876 15.5326 39.5003 15.7073C39.0131 15.882 38.4961 15.9585 37.9791 15.9323C37.1424 15.9517 36.319 15.7205 35.6146 15.2685C34.8651 14.7323 34.2698 14.0084 33.8885 13.1694L35.9244 11.9429C36.5566 13.0683 37.2394 13.631 38.036 13.631C38.4174 13.6437 38.7897 13.5128 39.0792 13.2643C39.2085 13.1664 39.3139 13.0404 39.3873 12.8958C39.4607 12.7513 39.5002 12.5919 39.5028 12.4297C39.4956 12.1141 39.3845 11.8096 39.1867 11.5636C38.7634 11.0736 38.2886 10.6306 37.7705 10.2422C36.7665 9.4929 35.8652 8.61501 35.0898 7.63102C34.7012 7.09642 34.4811 6.458 34.4576 5.79752C34.4536 5.36879 34.5419 4.94422 34.7164 4.5526C34.891 4.16098 35.1477 3.81148 35.4692 3.52778C35.8041 3.21163 36.1983 2.96503 36.6292 2.80225C37.06 2.63946 37.5189 2.56372 37.9791 2.57941C38.6136 2.58705 39.2366 2.74985 39.7937 3.0536C40.5086 3.45674 41.1413 3.99079 41.6588 4.62787Z" stroke="black" stroke-width="0.112884" stroke-miterlimit="10"/>
<path d="M49.9727 2.90186H52.293L57.7366 11.2664V2.90186H60.1517V15.6162H57.8251L52.3941 7.27064V15.6162H49.9727V2.90186Z" stroke="black" stroke-width="0.112884" stroke-miterlimit="10"/>
<path d="M68.9338 2.90186H75.8758V5.26643H71.3364V7.56779H75.8758V9.89443H71.3364V13.239H75.8758V15.6162H68.9338V2.90186Z" stroke="black" stroke-width="0.112884" stroke-miterlimit="10"/>
<path d="M87.9767 2.90186H90.4298L95.3233 15.6162H92.7944L91.846 12.9924H86.6237L85.5868 15.6162H83.0579L87.9767 2.90186ZM89.2412 6.2717L87.5152 10.6405H90.9166L89.2412 6.2717Z" stroke="black" stroke-width="0.112884" stroke-miterlimit="10"/>
<path d="M102.133 2.90186H104.579V7.28328L108.031 2.90186H110.933L106.495 8.57305L111.37 15.6162H108.499L104.579 9.96398V15.6162H102.133V2.90186Z" stroke="black" stroke-width="0.112884" stroke-miterlimit="10"/>
<path d="M118.811 2.90186H125.753V5.26643H121.214V7.56779H125.753V9.89443H121.214V13.239H125.753V15.6162H118.811V2.90186Z" stroke="black" stroke-width="0.112884" stroke-miterlimit="10"/>
<path d="M134.206 2.90189H136.773C137.786 2.8445 138.802 2.97088 139.77 3.27491C140.372 3.53335 140.877 3.97606 141.212 4.5394C141.595 5.15368 141.796 5.86384 141.793 6.58786C141.81 7.33686 141.589 8.07191 141.161 8.68689C140.7 9.28449 140.067 9.72593 139.346 9.95137L142.362 15.6036H139.713L136.855 10.2169H136.634V15.6036H134.206V2.90189ZM136.628 7.8713H137.386C137.933 7.92068 138.483 7.81553 138.973 7.56783C139.125 7.45052 139.244 7.29689 139.32 7.12116C139.397 6.94543 139.427 6.7533 139.41 6.56257C139.414 6.30392 139.339 6.05015 139.195 5.83549C139.053 5.63274 138.852 5.47831 138.619 5.39292C138.186 5.28182 137.738 5.23705 137.292 5.26015H136.659L136.628 7.8713Z" stroke="black" stroke-width="0.112884" stroke-miterlimit="10"/>
<path d="M156.752 4.62783L154.957 6.21476C154.324 5.34227 153.692 4.8997 153.06 4.8997C152.778 4.88889 152.501 4.98102 152.282 5.15892C152.191 5.22535 152.116 5.31172 152.064 5.41144C152.011 5.51115 151.982 5.62157 151.979 5.73425C151.984 5.95241 152.059 6.1631 152.194 6.33488C152.743 6.92542 153.337 7.47287 153.97 7.97239C154.893 8.74372 155.456 9.23687 155.652 9.43286C156.079 9.84338 156.432 10.3246 156.695 10.8554C156.901 11.3212 157.005 11.8257 156.999 12.3348C157.012 12.8179 156.923 13.2982 156.736 13.7441C156.55 14.1899 156.271 14.591 155.918 14.9207C155.15 15.6202 154.136 15.9863 153.098 15.9386C152.261 15.958 151.438 15.7268 150.733 15.2748C149.974 14.7401 149.369 14.0137 148.982 13.1694L151.018 11.9429C151.65 13.0682 152.333 13.6309 153.129 13.6309C153.511 13.6436 153.883 13.5128 154.173 13.2642C154.303 13.1667 154.409 13.0409 154.484 12.8964C154.558 12.7518 154.599 12.5922 154.603 12.4297C154.593 12.1135 154.479 11.8093 154.28 11.5635C153.858 11.0748 153.385 10.6319 152.87 10.2421C151.863 9.49236 150.959 8.61218 150.183 7.62465C149.795 7.09006 149.574 6.45164 149.551 5.79116C149.547 5.36242 149.635 4.93786 149.81 4.54624C149.984 4.15462 150.241 3.80511 150.563 3.52141C151.233 2.88914 152.126 2.54814 153.047 2.57305C153.679 2.57096 154.302 2.72286 154.862 3.01562C155.589 3.42737 156.231 3.97464 156.752 4.62783Z" stroke="black" stroke-width="0.112884" stroke-miterlimit="10"/>
</svg>
