<svg width="159" height="147" viewBox="0 0 159 147" fill="none" xmlns="http://www.w3.org/2000/svg">
<path d="M10.2457 131.454L7.94001 133.494C7.12815 132.373 6.31629 131.804 5.50444 131.804C5.14221 131.79 4.7873 131.908 4.50585 132.137C4.37941 132.215 4.27314 132.323 4.19558 132.45C4.11802 132.577 4.07135 132.72 4.05933 132.869C4.06211 133.15 4.15935 133.422 4.33536 133.641C5.04859 134.401 5.81945 135.105 6.64104 135.746C7.82635 136.737 8.54891 137.371 8.80058 137.623C9.34903 138.151 9.80223 138.77 10.1402 139.452C10.4128 140.049 10.554 140.697 10.5542 141.354C10.5714 141.975 10.4566 142.592 10.2172 143.165C9.97788 143.739 9.61952 144.254 9.16592 144.678C8.67471 145.126 8.09968 145.473 7.47403 145.697C6.84837 145.922 6.18448 146.02 5.52067 145.987C4.44621 146.011 3.38883 145.714 2.48432 145.133C1.52193 144.444 0.75757 143.513 0.267944 142.435L2.88213 140.858C3.69399 142.305 4.5708 143.028 5.59374 143.028C6.08347 143.044 6.5615 142.876 6.93331 142.557C7.09935 142.431 7.23461 142.269 7.32886 142.083C7.4231 141.897 7.47385 141.692 7.47725 141.484C7.46796 141.078 7.32529 140.687 7.07132 140.37C6.52774 139.74 5.91804 139.171 5.25276 138.672C3.96348 137.708 2.80616 136.58 1.81048 135.315C1.3115 134.628 1.02881 133.807 0.998617 132.958C0.993547 132.407 1.10692 131.861 1.33104 131.358C1.55516 130.854 1.8848 130.405 2.29759 130.04C2.72766 129.634 3.23395 129.317 3.78718 129.107C4.34042 128.898 4.92961 128.801 5.52067 128.821C6.3354 128.831 7.13535 129.04 7.85071 129.431C8.77228 129.961 9.58498 130.661 10.2457 131.495" fill="white"/>
<path d="M20.9216 129.235H23.9012L30.8913 139.988V129.235H33.9926V145.58H31.0049L24.0311 134.852V145.58H20.9216V129.235Z" fill="white"/>
<path d="M45.2692 129.235H54.1834V132.275H48.3542V135.234H54.1834V138.225H48.3542V142.524H54.1834V145.58H45.2692V129.235Z" fill="white"/>
<path d="M69.7225 129.235H72.8725L79.1563 145.58H75.9089L74.6911 142.207H67.9851L66.6537 145.58H63.4062L69.7225 129.235ZM71.3462 133.567L69.1299 139.184H73.4977L71.3462 133.567Z" fill="white"/>
<path d="M87.9 129.235H91.0419V134.868L95.4747 129.235H99.2011L93.5019 136.526L99.7613 145.58H96.0754L91.0419 138.314V145.58H87.9V129.235Z" fill="white"/>
<path d="M109.317 129.235H118.231V132.275H112.402V135.234H118.231V138.225H112.402V142.524H118.231V145.58H109.317V129.235Z" fill="white"/>
<path d="M129.086 129.236H132.382C133.683 129.162 134.987 129.324 136.23 129.715C137.003 130.047 137.651 130.616 138.081 131.341C138.573 132.13 138.832 133.043 138.828 133.974C138.85 134.937 138.566 135.882 138.016 136.672C137.424 137.441 136.611 138.008 135.686 138.298L139.559 145.564H136.157L132.487 138.639H132.203V145.564H129.086V129.236ZM132.195 135.624H133.169C133.872 135.687 134.578 135.552 135.207 135.234C135.402 135.083 135.555 134.885 135.653 134.66C135.751 134.434 135.79 134.187 135.767 133.941C135.773 133.609 135.677 133.283 135.491 133.007C135.309 132.746 135.051 132.548 134.752 132.438C134.196 132.295 133.621 132.237 133.048 132.267H132.236L132.195 135.624Z" fill="white" stroke="white" stroke-width="0.153269" stroke-miterlimit="10"/>
<path d="M158.037 131.454L155.731 133.494C154.919 132.373 154.107 131.804 153.295 131.804C152.933 131.79 152.578 131.908 152.297 132.137C152.18 132.222 152.084 132.333 152.016 132.462C151.949 132.59 151.911 132.732 151.907 132.876C151.913 133.157 152.01 133.428 152.183 133.649C152.889 134.408 153.651 135.112 154.464 135.754C155.65 136.745 156.372 137.379 156.624 137.631C157.172 138.159 157.626 138.778 157.964 139.46C158.228 140.059 158.361 140.707 158.353 141.362C158.37 141.983 158.256 142.6 158.016 143.173C157.777 143.746 157.419 144.262 156.965 144.686C155.979 145.585 154.677 146.056 153.344 145.995C152.27 146.019 151.212 145.722 150.308 145.141C149.332 144.454 148.556 143.52 148.059 142.435L150.673 140.858C151.485 142.305 152.362 143.028 153.385 143.028C153.874 143.044 154.352 142.876 154.724 142.557C154.891 142.431 155.028 142.269 155.123 142.084C155.219 141.898 155.271 141.693 155.276 141.484C155.263 141.077 155.118 140.686 154.862 140.37C154.32 139.742 153.713 139.173 153.052 138.672C151.758 137.708 150.598 136.576 149.601 135.307C149.102 134.619 148.82 133.799 148.79 132.95C148.784 132.398 148.898 131.853 149.122 131.349C149.346 130.846 149.676 130.397 150.088 130.032C150.949 129.219 152.096 128.781 153.279 128.813C154.09 128.81 154.89 129.005 155.609 129.382C156.531 129.912 157.343 130.612 158.004 131.446" fill="white"/>
<path d="M158.037 131.454L155.731 133.494C154.919 132.373 154.107 131.804 153.295 131.804C152.933 131.79 152.578 131.908 152.297 132.137C152.18 132.222 152.084 132.333 152.016 132.462C151.949 132.59 151.911 132.732 151.907 132.876C151.913 133.157 152.01 133.428 152.183 133.649C152.889 134.408 153.651 135.112 154.464 135.754C155.65 136.745 156.372 137.379 156.624 137.631C157.172 138.159 157.626 138.778 157.964 139.46C158.228 140.059 158.361 140.707 158.353 141.362C158.37 141.983 158.256 142.6 158.016 143.173C157.777 143.746 157.419 144.262 156.965 144.686C155.979 145.585 154.677 146.056 153.344 145.995C152.27 146.019 151.212 145.722 150.308 145.141C149.332 144.454 148.556 143.52 148.059 142.435L150.673 140.858C151.485 142.305 152.362 143.028 153.385 143.028C153.874 143.044 154.352 142.876 154.724 142.557C154.891 142.431 155.028 142.269 155.123 142.084C155.219 141.898 155.271 141.693 155.276 141.484C155.263 141.077 155.118 140.686 154.862 140.37C154.32 139.742 153.713 139.173 153.052 138.672C151.758 137.708 150.598 136.576 149.601 135.307C149.102 134.619 148.82 133.799 148.79 132.95C148.784 132.398 148.898 131.853 149.122 131.349C149.346 130.846 149.676 130.397 150.088 130.032C150.949 129.219 152.096 128.781 153.279 128.813C154.09 128.81 154.89 129.005 155.609 129.382C156.531 129.912 157.343 130.612 158.004 131.446" stroke="white" stroke-width="0.153269" stroke-miterlimit="10"/>
<g clip-path="url(#clip0_612_1752)">
<path d="M0.170532 0.155273V114.918H14.1345V114.836H45.797V100.776H14.1345V14.2161H158.889V0.155273H0.170532Z" fill="white"/>
<path d="M148.984 33.6408L54.7274 33.5596C48.4366 33.5939 42.4145 36.1164 37.9737 40.5773C33.533 45.0382 31.0339 51.0757 31.0211 57.3736C31.0254 63.6741 33.5218 69.7165 37.9643 74.1792C42.4069 78.642 48.434 81.1618 54.7274 81.1876H103.601C105.515 81.2618 107.366 81.8913 108.929 82.9993C110.492 84.1073 111.699 85.6461 112.404 87.4286C113.11 89.2111 113.282 91.1604 112.901 93.0393C112.521 94.9182 111.602 96.6457 110.259 98.0118C109.371 98.9202 108.31 99.6402 107.138 100.129C105.966 100.618 104.708 100.865 103.439 100.856H62.1965V114.917H103.439C109.759 114.939 115.828 112.446 120.312 107.988C124.796 103.53 127.327 97.4706 127.348 91.144C127.37 84.8173 124.88 78.7412 120.427 74.2524C115.973 69.7635 109.921 67.2296 103.601 67.208H54.6462C52.7228 67.1967 50.8458 66.6157 49.2517 65.5382C47.6576 64.4607 46.4177 62.9348 45.6885 61.153C44.9592 59.3712 44.773 57.4132 45.1535 55.5256C45.534 53.6381 46.4641 51.9056 47.8266 50.5464C48.7142 49.638 49.7755 48.9179 50.9472 48.4292C52.1189 47.9404 53.3769 47.693 54.6462 47.7017H144.357L144.275 115.08H158.312L158.394 33.7221L148.984 33.6408Z" fill="white"/>
</g>
<defs>
<clipPath id="clip0_612_1752">
<rect width="158.889" height="115.08" fill="white"/>
</clipPath>
</defs>
</svg>
