<svg width="41" height="30" viewBox="0 0 41 30" fill="none" xmlns="http://www.w3.org/2000/svg">
<path d="M0 0.172852V29.7851H3.60716V29.7642H11.7862V26.136H3.60716V3.80098H41V0.172852H0Z" fill="black"/>
<path d="M38.4414 8.81321L14.093 8.79224C12.468 8.80109 10.9124 9.45199 9.76523 10.603C8.61811 11.7541 7.97254 13.3119 7.96924 14.937C7.97033 16.5627 8.6152 18.1219 9.7628 19.2734C10.9104 20.4249 12.4673 21.0751 14.093 21.0817H26.7181C27.2124 21.1009 27.6905 21.2633 28.0943 21.5492C28.498 21.8351 28.8099 22.2322 28.9921 22.6921C29.1743 23.1521 29.2189 23.655 29.1205 24.1399C29.0221 24.6247 28.7849 25.0704 28.4378 25.4229C28.2085 25.6573 27.9343 25.8431 27.6317 25.9692C27.329 26.0953 27.004 26.1592 26.6761 26.1569H16.0224V29.7851H26.6761C28.3086 29.7906 29.8764 29.1475 31.0347 27.9971C32.193 26.8467 32.8468 25.2833 32.8524 23.6508C32.8579 22.0183 32.2148 20.4505 31.0644 19.2922C29.914 18.134 28.3506 17.4802 26.7181 17.4746H14.0721C13.5752 17.4717 13.0903 17.3218 12.6785 17.0437C12.2668 16.7657 11.9465 16.372 11.7581 15.9122C11.5697 15.4524 11.5216 14.9472 11.6199 14.4602C11.7182 13.9731 11.9585 13.5261 12.3104 13.1754C12.5397 12.941 12.8139 12.7552 13.1165 12.6291C13.4192 12.503 13.7442 12.4391 14.0721 12.4413H37.246L37.225 29.827H40.851L40.872 8.83418L38.4414 8.81321Z" fill="black"/>
</svg>
