<svg width="1016" height="922" viewBox="0 0 1016 922" fill="none" xmlns="http://www.w3.org/2000/svg">
<path fill-rule="evenodd" clip-rule="evenodd" d="M337.795 325.497C409.164 292.484 446.741 207.823 523.412 194.773C641.475 174.677 785.542 152.759 858.805 236.817C934.751 323.954 933.829 479.7 856.386 576.809C784.403 667.072 636.511 600.574 530.277 648.773C450.703 684.876 423.957 809.42 338.395 811.825C249.465 814.325 196.772 727.877 148.911 659.494C96.2894 584.309 9.28215 495.415 57.3948 410.339C106.516 323.479 245.253 368.305 337.795 325.497Z" fill="#0057DC"/>
<path fill-rule="evenodd" clip-rule="evenodd" d="M674.073 132.731C727.618 117.742 784.301 110.835 836.493 140.129C893.387 172.061 942.504 226.347 962.787 294.774C983.539 364.786 986.297 451.483 943.067 499.677C902.735 544.639 832.133 495.409 774.858 504.278C728.443 511.465 687.849 575.444 645.997 545.677C604.073 515.859 630.712 442.054 613.508 389.518C593.822 329.406 526.407 282.091 540.337 223.033C554.618 162.483 621.015 147.584 674.073 132.731Z" fill="#FF4625"/>
</svg>
