<svg width="740" height="771" viewBox="0 0 740 771" fill="none" xmlns="http://www.w3.org/2000/svg">
<path fill-rule="evenodd" clip-rule="evenodd" d="M445.307 47.0154C485.987 35.6279 529.051 30.3806 568.702 52.6356C611.927 76.8955 649.242 118.138 664.652 170.124C680.418 223.314 682.513 289.181 649.67 325.795C619.028 359.954 565.39 322.553 521.876 329.291C486.613 334.751 455.773 383.358 423.977 360.743C392.126 338.089 412.365 282.017 399.294 242.104C384.338 196.436 333.121 160.489 343.703 115.62C354.553 69.619 404.997 58.2996 445.307 47.0154Z" fill="#FF4625"/>
<path fill-rule="evenodd" clip-rule="evenodd" d="M213.151 334.195C255.279 291.836 259.699 221.604 310.873 192.068C389.675 146.584 486.521 92.9382 560.903 133.48C638.01 175.506 678.468 286.701 648.934 376.325C621.482 459.63 498.57 451.299 435.614 513.681C388.457 560.407 402.282 656.191 341.963 680.492C279.271 705.749 218.911 658.075 166.763 621.994C109.428 582.325 23.9779 541.966 35.7938 468.657C47.8576 393.812 158.526 389.121 213.151 334.195Z" fill="#0057DC"/>
</svg>
