<svg width="964" height="605" viewBox="0 0 964 605" fill="none" xmlns="http://www.w3.org/2000/svg">
<path fill-rule="evenodd" clip-rule="evenodd" d="M241.517 101.308C324.733 98.4349 409.568 104.211 474.719 144.612C545.739 188.652 597.337 252.965 601.916 324.796C606.6 398.291 579.084 484.214 498.775 522.048C423.852 557.345 339.211 493.243 252.803 489.267C182.779 486.044 100.559 539.996 50.5984 501.422C0.551805 462.783 66.0756 396.066 60.1898 340.555C53.4551 277.038 -27.2526 215.527 14.4509 160.503C57.207 104.089 159.056 104.155 241.517 101.308Z" fill="#FF8A6D"/>
<path fill-rule="evenodd" clip-rule="evenodd" d="M568.102 71.573C630.03 54.2374 695.587 46.2494 755.95 80.1287C821.752 117.06 878.558 179.846 902.016 258.985C926.017 339.958 929.207 440.229 879.209 495.967C832.563 547.968 750.907 491.031 684.665 501.288C630.984 509.601 584.034 583.596 535.63 549.169C487.143 514.683 517.953 429.323 498.055 368.562C475.287 299.039 397.318 244.317 413.428 176.012C429.945 105.983 506.737 88.7512 568.102 71.573Z" fill="#F9F2EA"/>
</svg>
