<svg width="488" height="392" viewBox="0 0 488 392" fill="none" xmlns="http://www.w3.org/2000/svg">
<path fill-rule="evenodd" clip-rule="evenodd" d="M145.48 174.784C175.283 176.132 177.56 163.287 202.201 152.349C234.434 138.041 310.984 146.84 318.525 122.95C327.345 95.0087 309.615 55.0834 278.874 34.5957C246.458 12.9916 197.815 3.86883 149.494 4.61568C100.207 5.37747 41.4553 11.8215 16.8937 38.6449C-6.53006 64.2256 0.612499 85.4146 16.4742 112.496C25.685 128.222 20.0736 140.553 39.9246 151.799C59.4197 162.843 118.808 173.578 145.48 174.784Z" fill="#FECEDA"/>
<path fill-rule="evenodd" clip-rule="evenodd" d="M298.471 74.7788C352.127 68.3226 405.574 8.90638 450.72 39.8957C495.6 70.7022 492.637 144.623 479.493 199.037C468.635 243.991 420.67 261.2 389.34 294.02C357.942 326.91 341.807 378.318 298.471 388.665C248.047 400.704 197.987 378.36 153.8 350.258C91.3609 310.546 -6.22858 275.129 0.312634 199.037C6.96746 121.624 108.585 101.538 177.656 72.7527C216.549 56.5438 256.875 79.7839 298.471 74.7788Z" fill="#F9F2EA"/>
</svg>
