<svg width="1143" height="919" viewBox="0 0 1143 919" fill="none" xmlns="http://www.w3.org/2000/svg">
<path fill-rule="evenodd" clip-rule="evenodd" d="M341.043 408.847C410.756 411.999 416.082 381.954 473.721 356.367C549.119 322.898 728.181 343.481 745.821 287.598C766.452 222.24 724.98 128.848 653.072 80.9246C577.245 30.3894 463.463 9.0499 350.433 10.7969C235.143 12.5788 97.7135 27.6524 40.2602 90.3963C-14.5315 150.233 2.17605 199.798 39.2789 263.145C60.8245 299.932 47.6984 328.775 94.1329 355.081C139.735 380.915 278.653 406.025 341.043 408.847Z" fill="#FECEDA"/>
<path fill-rule="evenodd" clip-rule="evenodd" d="M699.083 174.716C824.757 159.568 949.941 20.1626 1055.68 92.8716C1160.8 165.152 1153.86 338.588 1123.08 466.259C1097.64 571.732 985.299 612.109 911.917 689.113C838.376 766.283 800.584 886.898 699.083 911.175C580.978 939.423 463.728 886.998 360.233 821.062C213.987 727.889 -14.5887 644.79 0.732255 466.259C16.3193 284.628 254.329 237.501 416.109 169.963C507.205 131.932 601.657 186.46 699.083 174.716Z" fill="#F9F2EA"/>
</svg>
