<svg width="1143" height="888" viewBox="0 0 1143 888" fill="none" xmlns="http://www.w3.org/2000/svg">
<path fill-rule="evenodd" clip-rule="evenodd" d="M547.043 877.847C616.756 880.999 622.082 850.954 679.721 825.367C755.119 791.898 934.181 812.481 951.821 756.598C972.452 691.24 930.98 597.848 859.072 549.925C783.245 499.389 669.463 478.05 556.433 479.797C441.143 481.579 303.714 496.652 246.26 559.396C191.469 619.233 208.176 668.798 245.279 732.145C266.824 768.932 253.698 797.775 300.133 824.081C345.735 849.915 484.653 875.025 547.043 877.847Z" fill="#FECEDA"/>
<path fill-rule="evenodd" clip-rule="evenodd" d="M699.083 102.716C824.757 87.5684 949.941 -51.8374 1055.68 20.8716C1160.8 93.1517 1153.86 266.588 1123.08 394.259C1097.64 499.732 985.299 540.109 911.917 617.113C838.376 694.283 800.584 814.898 699.083 839.175C580.978 867.423 463.728 814.998 360.233 749.062C213.987 655.889 -14.5887 572.79 0.732255 394.259C16.3193 212.628 254.329 165.501 416.109 97.9626C507.205 59.9324 601.657 114.46 699.083 102.716Z" fill="#F9F2EA"/>
</svg>
