<svg width="313" height="304" viewBox="0 0 313 304" fill="none" xmlns="http://www.w3.org/2000/svg">
<path fill-rule="evenodd" clip-rule="evenodd" d="M198.429 233.035C172.201 249.665 143.82 263.818 115.237 263.117C84.0784 262.353 55.3421 251.402 40.3128 229.159C24.9352 206.4 17.571 173.566 36.2652 146.238C53.7061 120.743 93.0322 125.39 121.58 110.362C144.714 98.1829 160.981 65.3099 184.333 68.2896C207.725 71.2745 199.238 105.103 211.608 121.85C225.762 141.012 263.334 145.567 260.303 171.139C257.196 197.356 224.419 216.557 198.429 233.035Z" fill="#D3EADD"/>
<path fill-rule="evenodd" clip-rule="evenodd" d="M120.827 58.868C140.297 44.8611 162.236 33.6633 187.72 37.7958C215.501 42.3006 243.443 57.0136 261.8 81.728C280.581 107.015 294.546 141.728 284.175 167.657C274.5 191.849 238.603 182.368 216.715 194.448C198.977 204.238 192.013 236.172 170.648 230.315C149.245 224.448 149.1 190.602 134.345 171.869C117.462 150.435 83.1404 141.257 80.0314 115.268C76.8439 88.6228 101.534 72.7477 120.827 58.868Z" fill="#0057DC"/>
</svg>
