<svg width="588" height="774" viewBox="0 0 588 774" fill="none" xmlns="http://www.w3.org/2000/svg">
<path fill-rule="evenodd" clip-rule="evenodd" d="M184.598 636.129C140.912 589.056 101.451 536.672 92.1184 478.285C81.9446 414.639 93.3968 352.084 132.971 313.151C173.462 273.316 237.455 245.983 300.06 273.712C358.467 299.581 363.819 381.297 405.123 433.69C438.595 476.148 511.562 496.854 514.292 545.46C517.027 594.15 445.045 589.623 415.647 621.08C382.01 657.073 386.887 735.188 333.748 738.649C279.268 742.198 227.888 682.775 184.598 636.129Z" fill="#D3EADD"/>
<path fill-rule="evenodd" clip-rule="evenodd" d="M192.516 121.737C232.78 92.7714 278.15 69.6146 330.85 78.1605C388.299 87.4763 446.083 117.902 484.044 169.011C522.884 221.304 551.763 293.089 530.316 346.711C510.307 396.737 436.074 377.131 390.81 402.113C354.129 422.358 339.727 488.396 295.544 476.285C251.285 464.153 250.984 394.159 220.471 355.42C185.558 311.094 114.582 292.116 108.152 238.371C101.561 183.269 152.619 150.44 192.516 121.737Z" fill="#0057DC"/>
</svg>
