<svg width="627" height="596" viewBox="0 0 627 596" fill="none" xmlns="http://www.w3.org/2000/svg">
<path fill-rule="evenodd" clip-rule="evenodd" d="M391.206 187.85C422.735 226.14 448.8 269.903 443.708 323.049C438.156 380.983 411.561 440.627 363.036 481.839C313.386 524.005 243.636 557.502 188.731 539.596C137.506 522.891 152.231 447.537 124.352 403.998C101.759 368.714 34.9227 358.648 44.1284 313.77C53.3499 268.814 123.175 263.951 159.843 230.978C201.798 193.25 216.11 121.187 269.321 111.268C323.876 101.099 359.964 149.908 391.206 187.85Z" fill="#F9F2EA"/>
<path fill-rule="evenodd" clip-rule="evenodd" d="M248.084 101.198C307.6 77.0675 370.58 58.7726 428.477 70.7737C491.59 83.8561 546.005 116.768 568.354 167.586C591.221 219.58 594.057 289.109 545.911 337.793C500.993 383.213 422.699 359.208 359.056 379.223C307.481 395.443 262.221 456.309 215.812 441.606C169.322 426.879 199.106 361.191 180.134 322.542C158.426 278.318 83.6673 255.148 99.2951 204.241C115.317 152.049 189.109 125.11 248.084 101.198Z" fill="#FECEDA"/>
</svg>
