<svg width="339" height="345" viewBox="0 0 339 345" fill="none" xmlns="http://www.w3.org/2000/svg">
<path fill-rule="evenodd" clip-rule="evenodd" d="M226.171 108.603C244.399 130.74 259.468 156.042 256.524 186.767C253.315 220.261 237.939 254.744 209.885 278.57C181.18 302.948 140.855 322.314 109.112 311.962C79.4971 302.303 88.0103 258.739 71.8922 233.567C58.8303 213.168 20.1895 207.349 25.5117 181.402C30.843 155.412 71.2116 152.6 92.4106 133.537C116.667 111.725 124.941 70.063 155.705 64.3284C187.245 58.4491 208.108 86.6677 226.171 108.603Z" fill="#F9F2EA"/>
<path fill-rule="evenodd" clip-rule="evenodd" d="M120.164 58.5067C154.573 44.5557 190.984 33.9787 224.457 40.917C260.944 48.4805 292.404 67.5084 305.325 96.8879C318.545 126.948 320.185 167.145 292.35 195.291C266.381 221.55 221.116 207.672 184.322 219.244C154.504 228.621 128.338 263.81 101.506 255.31C74.6291 246.795 91.8484 208.819 80.8799 186.474C68.3295 160.907 25.1086 147.511 34.1436 118.08C43.4067 87.9056 86.0684 72.3309 120.164 58.5067Z" fill="#0057DC"/>
</svg>
