<svg width="685" height="651" viewBox="0 0 685 651" fill="none" xmlns="http://www.w3.org/2000/svg">
<path fill-rule="evenodd" clip-rule="evenodd" d="M427.663 205.357C462.13 247.215 490.624 295.057 485.057 353.156C478.989 416.489 449.916 481.692 396.868 526.744C342.591 572.84 266.341 609.459 206.318 589.884C150.32 571.622 166.417 489.246 135.94 441.649C111.241 403.077 38.1757 392.073 48.2393 343.012C58.3202 293.866 134.653 288.55 174.738 252.504C220.603 211.26 236.249 132.481 294.419 121.638C354.058 110.521 393.509 163.879 427.663 205.357Z" fill="#F9F2EA"/>
<path fill-rule="evenodd" clip-rule="evenodd" d="M271.203 110.63C336.265 84.2502 405.115 64.2502 468.408 77.3698C537.402 91.6714 596.889 127.651 621.321 183.204C646.319 240.045 649.419 316.053 596.786 369.274C547.682 418.927 462.092 392.685 392.517 414.566C336.135 432.297 286.658 498.835 235.923 482.762C185.101 466.662 217.661 394.853 196.921 352.601C173.189 304.256 91.4633 278.927 108.548 223.276C126.063 166.22 206.731 136.77 271.203 110.63Z" fill="#0057DC"/>
</svg>
