<svg width="679" height="610" viewBox="0 0 679 610" fill="none" xmlns="http://www.w3.org/2000/svg">
<path fill-rule="evenodd" clip-rule="evenodd" d="M493.488 194.027C517.516 248.33 533.481 307.186 510.497 366.829C485.444 431.845 435.574 492.058 366.35 523.956C295.523 556.593 204.309 572.761 146.762 534.436C93.0736 498.68 134.314 416.531 116.185 357.349C101.493 309.389 27.6648 276.263 52.7294 227.477C77.8369 178.608 159.918 195.482 212.816 169.266C273.342 139.27 313.047 60.7824 377.599 66.4771C443.78 72.3155 469.678 140.217 493.488 194.027Z" fill="#F9F2EA"/>
<path fill-rule="evenodd" clip-rule="evenodd" d="M309.955 35.0728C386.352 26.4096 464.866 25.5912 527.762 58.0706C596.326 93.4761 648.476 148.947 657.885 214.741C667.513 282.058 648.397 363.145 577.205 403.781C510.786 441.693 428.234 388.805 348.403 391.394C283.709 393.491 211.923 449.103 163.142 417.208C114.277 385.257 169.77 319.102 160.337 268.427C149.543 210.443 70.799 159.656 105.21 105.987C140.489 50.9626 234.252 43.6573 309.955 35.0728Z" fill="#0057DC"/>
</svg>
