<svg width="747" height="753" viewBox="0 0 747 753" fill="none" xmlns="http://www.w3.org/2000/svg">
<path fill-rule="evenodd" clip-rule="evenodd" d="M605.943 516.433C593.395 572.151 572.011 626.766 520.086 659.675C463.483 695.55 390.461 713.497 318.708 698.481C245.294 683.118 165.564 643.352 143.064 580.776C122.071 522.395 200.995 482.558 220.894 426.452C237.02 380.984 198.962 313.097 246.275 289.767C293.669 266.397 347.413 326.457 403.297 336.509C467.241 348.011 542.88 310.123 589.486 351.504C637.27 393.929 618.376 461.222 605.943 516.433Z" fill="#F1FFB2"/>
<path fill-rule="evenodd" clip-rule="evenodd" d="M392.878 72.6216C476.349 97.1207 558.185 132.035 607.561 199.909C661.385 273.897 688.385 364.546 666.013 448.082C643.123 533.554 583.694 622.464 490.006 638.85C402.6 654.137 342.804 552.699 258.737 519.314C190.611 492.259 88.9938 526.408 53.9737 465.692C18.8935 404.871 108.761 350.575 123.725 285.235C140.848 210.471 83.9761 113.303 145.879 64.4037C209.344 14.2704 310.164 48.3449 392.878 72.6216Z" fill="#FFCA75"/>
</svg>
