<svg width="813" height="884" viewBox="0 0 813 884" fill="none" xmlns="http://www.w3.org/2000/svg">
<path fill-rule="evenodd" clip-rule="evenodd" d="M727.46 452.189C737.061 503.335 738.87 556.747 707.296 603.016C672.877 653.452 618.251 694.812 552.797 708.134C485.827 721.763 404.77 717.253 363.368 673.011C324.743 631.736 376.408 569.931 372.818 515.807C369.908 471.945 313.574 428.871 344.745 392.282C375.97 355.631 442.606 386.496 492.992 374.746C550.645 361.303 600.266 302.313 654.191 320.124C709.477 338.385 717.945 401.507 727.46 452.189Z" fill="#F1FFB2"/>
<path fill-rule="evenodd" clip-rule="evenodd" d="M624.913 154.469C560.516 117.525 488.519 91.6306 407.007 120.362C318.151 151.682 230.036 218.122 174.009 313.405C116.684 410.895 76.0277 537.977 112.613 621.026C146.745 698.507 194.566 740.212 266.508 769.164C324.808 792.626 417.713 803.49 485.756 771.194C553.915 738.843 550.199 622.624 595.373 549.922C647.062 466.735 756.394 415.647 763.188 324.696C770.153 231.45 688.725 191.077 624.913 154.469Z" fill="#FFCA75"/>
</svg>
