<svg width="862" height="568" viewBox="0 0 862 568" fill="none" xmlns="http://www.w3.org/2000/svg">
<path fill-rule="evenodd" clip-rule="evenodd" d="M231.821 6.47735C279.347 4.32809 282.977 24.8112 322.272 42.2544C373.673 65.0717 495.745 51.0394 507.771 89.1366C521.836 133.693 493.563 197.361 444.541 230.033C392.847 264.484 315.278 279.032 238.222 277.841C159.625 276.626 65.9353 266.35 26.7674 223.575C-10.5858 182.783 0.804274 148.993 26.0985 105.807C40.7868 80.7283 31.8383 61.0651 63.4942 43.1315C94.5826 25.5194 189.287 8.40083 231.821 6.47735Z" fill="#FF8A6E"/>
<path fill-rule="evenodd" clip-rule="evenodd" d="M590.523 112.353C667.379 103.089 743.935 17.833 808.601 62.2996C872.885 106.504 868.641 212.572 849.815 290.652C834.263 355.156 765.558 379.85 720.681 426.943C675.708 474.138 652.596 547.903 590.523 562.75C518.296 580.025 446.592 547.964 383.3 507.639C293.863 450.657 154.078 399.836 163.448 290.652C172.98 179.572 318.535 150.751 417.471 109.446C473.18 86.1881 530.942 119.535 590.523 112.353Z" fill="#D3EADD"/>
</svg>
