<svg width="911" height="1149" viewBox="0 0 911 1149" fill="none" xmlns="http://www.w3.org/2000/svg">
<path fill-rule="evenodd" clip-rule="evenodd" d="M845.954 667.913C861.903 752.878 864.909 841.606 812.458 918.467C755.281 1002.25 664.537 1070.96 555.806 1093.09C444.555 1115.73 309.903 1108.24 241.127 1034.74C176.962 966.176 262.789 863.507 256.824 773.595C251.99 700.732 158.408 629.179 210.19 568.397C262.06 507.512 372.756 558.785 456.457 539.267C552.23 516.934 634.66 418.941 724.24 448.528C816.082 478.863 830.149 583.721 845.954 667.913Z" fill="#F1FFB2"/>
<path fill-rule="evenodd" clip-rule="evenodd" d="M265.433 45.0729C356.804 33.6203 451.582 38.4476 531.105 110.337C617.791 188.704 686.822 306.903 705.329 442.75C724.266 581.744 709.965 746.621 628.353 824.143C552.212 896.467 446.726 781.052 350.547 779.75C272.605 778.694 191.9 886.91 129.497 817.388C66.9868 747.747 126.862 616.537 109.966 511.724C90.6339 391.795 -10.0231 281.008 25.7328 173.682C62.3912 63.6476 174.892 56.4216 265.433 45.0729Z" fill="#FFCA75"/>
</svg>
