<svg width="699" height="860" viewBox="0 0 699 860" fill="none" xmlns="http://www.w3.org/2000/svg">
<path fill-rule="evenodd" clip-rule="evenodd" d="M653.83 526.837C664.866 585.623 666.946 647.013 630.655 700.192C591.095 758.162 528.31 805.7 453.08 821.011C376.107 836.676 282.942 831.493 235.357 780.643C190.962 733.202 250.344 662.166 246.218 599.957C242.873 549.544 178.124 500.037 213.952 457.983C249.841 415.857 326.43 451.332 384.342 437.828C450.606 422.376 507.638 354.575 569.618 375.047C633.162 396.035 642.895 468.585 653.83 526.837Z" fill="#F1FFB2"/>
<path fill-rule="evenodd" clip-rule="evenodd" d="M104.223 190.996C139.714 145.726 183.877 106.177 250.771 103.086C323.691 99.7162 406.302 121.78 474.265 173.895C543.802 227.218 609.982 306.641 607.881 376.924C605.921 442.495 508.365 437.701 465.131 479.429C430.095 513.244 441.898 596.743 383.638 593.355C325.279 589.961 294.123 505.425 240.526 466.366C179.199 421.674 85.8208 416.809 54.4724 353.476C22.3327 288.545 69.0548 235.855 104.223 190.996Z" fill="#FFCA75"/>
</svg>
